<svg width="30" height="30" viewBox="0 0 30 30" fill="none" xmlns="http://www.w3.org/2000/svg">
<g id="android-svgrepo-com 1" clip-path="url(#clip0_120_20742)">
<g id="Group">
<path id="Vector" d="M13.5 9.67969C13.2598 9.67969 13.0664 9.87305 13.0664 10.1133C13.0664 10.3535 13.2598 10.5469 13.5 10.5469C13.7402 10.5469 13.9336 10.3535 13.9336 10.1133C13.9336 9.87305 13.7402 9.67969 13.5 9.67969Z" fill="white"/>
<path id="Vector_2" d="M16.9805 9.67969C16.7402 9.67969 16.5469 9.87305 16.5469 10.1133C16.5469 10.3535 16.7402 10.5469 16.9805 10.5469C17.2207 10.5469 17.4141 10.3535 17.4141 10.1133C17.4199 9.87305 17.2266 9.67969 16.9805 9.67969Z" fill="white"/>
<path id="Vector_3" d="M3 0C1.34315 0 0 1.34315 0 3V27C0 28.6569 1.34315 30 3 30H27C28.6569 30 30 28.6569 30 27V3C30 1.34315 28.6569 0 27 0H3ZM10.5938 16.8867C10.5938 17.3672 10.2012 17.7598 9.7207 17.7598C9.24023 17.7598 8.84766 17.3672 8.84766 16.8867V13.1602C8.84766 12.6797 9.24023 12.2871 9.7207 12.2871C10.2012 12.2871 10.5938 12.6797 10.5938 13.1602V16.8867ZM19.3066 13.0137V13.6055V18.6797C19.3066 19.1895 18.8965 19.5996 18.3867 19.5996H17.7246C17.748 19.6758 17.7598 19.7578 17.7598 19.8398V19.8867V20.1797V21.6797C17.7598 22.1602 17.3672 22.5527 16.8867 22.5527C16.4062 22.5527 16.0137 22.1602 16.0137 21.6797V20.1797V19.8867V19.8398C16.0137 19.7578 16.0254 19.6758 16.0488 19.5996H14.4316C14.4551 19.6758 14.4668 19.7578 14.4668 19.8398V19.8867V20.1797V21.6797C14.4668 22.1602 14.0742 22.5527 13.5938 22.5527C13.1133 22.5527 12.7207 22.1602 12.7207 21.6797V20.1797V19.8867V19.8398C12.7207 19.7578 12.7324 19.6758 12.7559 19.5996H12.0938C11.584 19.5996 11.1738 19.1895 11.1738 18.6797V13.6055V13.0137V12.2871H11.2383H19.2422H19.3066V13.0137ZM11.1738 11.7129C11.1738 10.4707 12.0059 9.38086 13.2422 8.80664L13.0781 8.56055L12.9141 8.32031L12.5508 7.77539C12.5098 7.71094 12.5273 7.61719 12.5918 7.57617C12.6562 7.5293 12.75 7.55273 12.791 7.61719L13.1777 8.19727L13.3418 8.44336L13.5059 8.68945C14.0332 8.48438 14.6133 8.37305 15.2344 8.37305C15.8496 8.37305 16.4355 8.48438 16.9629 8.68945L17.127 8.44336L17.291 8.19727L17.6777 7.61719C17.7188 7.55273 17.8125 7.5293 17.877 7.57617C17.9414 7.62305 17.9648 7.71094 17.918 7.77539L17.5547 8.32031L17.4023 8.56055L17.2383 8.80664C18.4688 9.38086 19.3008 10.4648 19.3008 11.7129H11.1738ZM21.627 16.8867C21.627 17.3672 21.2344 17.7598 20.7539 17.7598C20.2734 17.7598 19.8809 17.3672 19.8809 16.8867V13.1602C19.8809 12.6797 20.2734 12.2871 20.7539 12.2871C21.2344 12.2871 21.627 12.6797 21.627 13.1602V16.8867Z" fill="white"/>
</g>
</g>
<defs>
<clipPath id="clip0_120_20742">
<rect width="30" height="30" fill="white"/>
</clipPath>
</defs>
</svg>
