<svg width="30" height="30" viewBox="0 0 30 30" fill="none" xmlns="http://www.w3.org/2000/svg">
<g id="apple-svgrepo-com 1" clip-path="url(#clip0_120_20747)">
<path id="Vector" d="M3 0C1.34315 0 0 1.34315 0 3V27C0 28.6569 1.34315 30 3 30H27C28.6569 30 30 28.6569 30 27V3C30 1.34315 28.6569 0 27 0H3ZM15.5332 8.32617C16.084 7.6582 17.0215 7.14844 17.8242 7.08984C17.959 8.00391 17.584 8.89453 17.0918 9.52734C16.5645 10.207 15.6562 10.7285 14.7773 10.6992C14.625 9.82617 15.0352 8.92969 15.5332 8.32617ZM20.4727 19.916C19.8398 20.877 18.9492 22.0781 17.8418 22.0898C16.8574 22.1016 16.6055 21.4512 15.2754 21.457C13.9453 21.4629 13.6641 22.1016 12.6797 22.0898C11.5723 22.0781 10.7285 20.9941 10.0957 20.0332C8.32617 17.3379 8.13867 14.1797 9.23438 12.498C10.0078 11.3027 11.2324 10.6055 12.3867 10.6055C13.5586 10.6055 14.291 11.25 15.2637 11.25C16.2012 11.25 16.7754 10.6055 18.1289 10.6055C19.1543 10.6055 20.2383 11.1621 21.0117 12.1289C18.4805 13.5176 18.8906 17.1328 21.4512 18.0996C21.0938 18.873 20.9238 19.2246 20.4727 19.916Z" fill="white"/>
</g>
<defs>
<clipPath id="clip0_120_20747">
<rect width="30" height="30" fill="white"/>
</clipPath>
</defs>
</svg>
