<svg width="20" height="20" viewBox="0 0 20 20" fill="none" xmlns="http://www.w3.org/2000/svg">
<g id="arrow-up-small-big-svgrepo-com">
<path id="Vector" d="M5.83333 3.3335V16.6668M5.83333 3.3335L9.16667 6.66683M5.83333 3.3335L2.5 6.66683M13 16.6668H16.1667C16.6334 16.6668 16.8668 16.6668 17.045 16.576C17.2018 16.4961 17.3293 16.3687 17.4092 16.2118C17.5 16.0336 17.5 15.8002 17.5 15.3335V12.1668C17.5 11.7001 17.5 11.4667 17.4092 11.2885C17.3293 11.1317 17.2018 11.0042 17.045 10.9243C16.8668 10.8335 16.6334 10.8335 16.1667 10.8335H13C12.5333 10.8335 12.2999 10.8335 12.1217 10.9243C11.9648 11.0042 11.8374 11.1317 11.7575 11.2885C11.6667 11.4667 11.6667 11.7001 11.6667 12.1668V15.3335C11.6667 15.8002 11.6667 16.0336 11.7575 16.2118C11.8374 16.3687 11.9648 16.4961 12.1217 16.576C12.2999 16.6668 12.5333 16.6668 13 16.6668ZM13 7.50016H14.5C14.9667 7.50016 15.2001 7.50016 15.3783 7.40934C15.5352 7.32944 15.6626 7.20195 15.7425 7.04515C15.8333 6.8669 15.8333 6.63354 15.8333 6.16683V4.66683C15.8333 4.20012 15.8333 3.96676 15.7425 3.7885C15.6626 3.6317 15.5352 3.50422 15.3783 3.42432C15.2001 3.3335 14.9667 3.3335 14.5 3.3335H13C12.5333 3.3335 12.2999 3.3335 12.1217 3.42432C11.9648 3.50422 11.8374 3.6317 11.7575 3.7885C11.6667 3.96676 11.6667 4.20012 11.6667 4.66683V6.16683C11.6667 6.63354 11.6667 6.8669 11.7575 7.04515C11.8374 7.20195 11.9648 7.32944 12.1217 7.40934C12.2999 7.50016 12.5333 7.50016 13 7.50016Z" stroke="#90A3C4" stroke-width="1.5" stroke-linecap="round" stroke-linejoin="round"/>
</g>
</svg>
