<svg width="40" height="40" viewBox="0 0 40 40" fill="none" xmlns="http://www.w3.org/2000/svg">
<g id="campervan-svgrepo-com 1" clip-path="url(#clip0_120_12039)">
<path id="Vector" d="M13.0321 25.6245C11.2509 25.6245 9.75098 27.1245 9.75098 28.9056C9.75098 30.6868 11.2509 32.1868 13.0321 32.1868C14.8133 32.1868 16.3132 30.6868 16.3132 28.9056C16.3132 27.1245 14.8133 25.6245 13.0321 25.6245ZM13.0321 30.3118C12.2821 30.3118 11.6259 29.6556 11.6259 28.9056C11.6259 28.1557 12.2821 27.4994 13.0321 27.4994C13.7821 27.4994 14.4383 28.1557 14.4383 28.9056C14.4383 29.6556 13.7821 30.3118 13.0321 30.3118Z" fill="#90A3C4"/>
<path id="Vector_2" d="M26.1561 25.6245C24.3749 25.6245 22.875 27.1245 22.875 28.9056C22.875 30.6868 24.2812 32.1868 26.1561 32.1868C27.9373 32.1868 29.4373 30.6868 29.4373 28.9056C29.4373 27.1245 27.9373 25.6245 26.1561 25.6245ZM26.1561 30.3118C25.4062 30.3118 24.7499 29.6556 24.7499 28.9056C24.7499 28.1557 25.4062 27.4994 26.1561 27.4994C26.9061 27.4994 27.5623 28.1557 27.5623 28.9056C27.5623 29.6556 26.9061 30.3118 26.1561 30.3118Z" fill="#90A3C4"/>
<path id="Vector_3" d="M35.0624 21.9687V21.875H34.9687L31.6876 16.7189C33.1875 15.8752 34.125 14.3753 34.125 12.7816V12.2191C34.125 9.78167 32.1563 7.81299 29.7189 7.81299H21.7504C19.9692 7.81299 18.2818 8.93795 17.6256 10.6254H8.81338C7.21968 10.6254 6.00098 11.8441 6.00098 13.4378V29.3747H7.87591V13.4378C7.87591 12.8753 8.2509 12.5003 8.81338 12.5003H19.0318L19.1255 11.7503C19.4067 10.5316 20.438 9.68792 21.6567 9.68792H29.6251C31.1251 9.68792 32.25 10.8129 32.25 12.2191V12.6878C32.25 14.094 31.1251 15.219 29.7189 15.219H26.6252V23.6562H33.9375L34.125 23.9374V26.5623C34.125 27.1248 33.75 27.4998 33.1875 27.4998H31.3126V29.3747H33.1875C34.7812 29.3747 35.9999 28.156 35.9999 26.5623V23.4687L35.0624 21.9687ZM28.5002 21.875V17.1877H29.9064L32.8125 21.875H28.5002Z" fill="#90A3C4"/>
<path id="Vector_4" d="M22.8748 22.906C22.8748 23.372 23.2526 23.7497 23.7186 23.7497H23.906C24.372 23.7497 24.7498 23.372 24.7498 22.906V15.3125H18.1875V28.5308C18.1875 28.9967 18.5652 29.3745 19.0312 29.3745H19.2187C19.6847 29.3745 20.0624 28.9967 20.0624 28.5308V17.1874H22.8748V22.906Z" fill="#90A3C4"/>
</g>
<defs>
<clipPath id="clip0_120_12039">
<rect width="40" height="40" fill="white"/>
</clipPath>
</defs>
</svg>
