<svg width="70" height="70" viewBox="0 0 70 70" fill="none" xmlns="http://www.w3.org/2000/svg">
<g id="city-4074253 1">
<path id="Vector" d="M67.7651 56.2106H58.2817V39.4247C58.2817 39.214 58.1412 39.0033 58.0007 38.8628L49.009 31.6287C48.9388 31.5584 48.8685 31.5584 48.8685 31.4882C48.8685 31.4882 48.8685 31.4882 48.7983 31.4882C48.728 31.4882 48.6578 31.418 48.6578 31.418H48.5875C48.5173 31.418 48.447 31.418 48.3768 31.418C48.3768 31.418 48.3768 31.418 48.3065 31.418C48.2363 31.418 48.166 31.418 48.166 31.4882H48.0958C48.0256 31.4882 47.9553 31.5584 47.9553 31.6287L44.7239 34.2273V20.1805C44.7239 19.9698 44.5834 19.7591 44.4429 19.6186L35.5215 12.3845C35.4513 12.3143 35.381 12.3143 35.381 12.2441C35.381 12.2441 35.381 12.2441 35.3108 12.2441C35.2405 12.2441 35.1703 12.1738 35.1703 12.1738H35.1C35.0298 12.1738 34.9595 12.1738 34.8893 12.1738C34.8893 12.1738 34.8893 12.1738 34.819 12.1738C34.7488 12.1738 34.6785 12.1738 34.6785 12.2441H34.6083C34.538 12.2441 34.4678 12.3143 34.4678 12.3845L25.5464 19.6186C25.4059 19.7591 25.2654 19.9698 25.2654 20.1805V26.5718L22.034 23.9731C21.9637 23.9029 21.8935 23.9029 21.8935 23.8327C21.8935 23.8327 21.8935 23.8327 21.8232 23.8327C21.753 23.8327 21.6828 23.7625 21.6828 23.7625H21.6125C21.5423 23.7625 21.472 23.7625 21.4018 23.7625C21.4018 23.7625 21.4018 23.7625 21.3315 23.7625C21.2613 23.7625 21.191 23.7625 21.191 23.8327H21.0505C20.9803 23.8327 20.91 23.9029 20.91 23.9731L12.1291 31.2073C11.9886 31.3477 11.8481 31.5584 11.8481 31.7691V56.2106H2.29445C1.87297 56.2106 1.52173 56.5618 1.52173 56.9832C1.52173 57.4046 1.87297 57.7558 2.29445 57.7558H12.6208C13.0423 57.7558 13.3936 57.4046 13.3936 56.9832V32.1203L20.7695 26.1504V56.9129C20.7695 57.3343 21.1208 57.6855 21.5423 57.6855C21.9637 57.6855 22.315 57.3343 22.315 56.9129V26.1504L25.2654 28.5384V56.9832C25.2654 57.4046 25.6166 57.7558 26.0381 57.7558C26.4596 57.7558 26.8108 57.4046 26.8108 56.9832V29.8026L29.7612 32.1905V56.9832C29.7612 57.4046 30.1124 57.7558 30.5339 57.7558C30.9554 57.7558 31.3067 57.4046 31.3067 56.9832V31.8394C31.3067 31.6287 31.1662 31.418 31.0257 31.2775L26.8811 27.9063V20.6019L34.257 14.632V57.0534C34.257 57.4748 34.6083 57.826 35.0298 57.826C35.4513 57.826 35.8025 57.4748 35.8025 57.0534V14.632L43.1785 20.6019V35.5618L39.0339 38.933C38.8934 39.0735 38.7529 39.2842 38.7529 39.4949V56.9832C38.7529 57.4046 39.1041 57.7558 39.5256 57.7558C39.9471 57.7558 40.2983 57.4046 40.2983 56.9832V39.8461L43.2487 37.4581V56.9832C43.2487 57.4046 43.6 57.7558 44.0214 57.7558C44.4429 57.7558 44.7942 57.4046 44.7942 56.9832V36.1939L47.7446 33.8059V56.9129C47.7446 57.3343 48.0958 57.6855 48.5173 57.6855C48.9388 57.6855 49.29 57.3343 49.29 56.9129V33.8059L56.666 39.7758V56.9129C56.666 57.3343 57.0172 57.6855 57.4387 57.6855H67.6948C68.1163 57.6855 68.4676 57.3343 68.4676 56.9129C68.5378 56.4915 68.2568 56.2106 67.7651 56.2106Z" fill="#1C819D"/>
</g>
</svg>
