<svg width="48" height="48" viewBox="0 0 48 48" fill="none" xmlns="http://www.w3.org/2000/svg">
<g id="noun-electric-car-2628863 1" clip-path="url(#clip0_120_12089)">
<path id="Vector" d="M30.6731 16.4781C30.8642 17.4918 31.4053 18.4062 32.2021 19.0615C32.9989 19.7168 34.0005 20.0713 35.0321 20.0631H35.0871C36.2299 20.0328 37.3532 19.7606 38.3831 19.2646C39.413 18.7685 40.3261 18.0597 41.0621 17.1851C42.8491 15.2751 43.3311 12.5391 43.6841 10.5411C43.7782 9.92072 43.9067 9.3061 44.0691 8.70006C44.6935 6.97193 45.7038 5.40897 47.0231 4.13006C47.1344 4.02677 47.2119 3.8922 47.2453 3.74405C47.2787 3.5959 47.2664 3.44111 47.2101 3.30006C47.151 3.16053 47.052 3.04157 46.9255 2.95813C46.799 2.87469 46.6507 2.83048 46.4991 2.83106C46.1111 2.83906 36.9491 3.10406 32.5811 9.29306C30.3001 12.5301 30.3621 14.8331 30.6731 16.4781ZM33.8081 10.1581C36.6181 6.17506 41.8801 4.90906 44.6761 4.51106C43.7776 5.62958 43.0867 6.89997 42.6361 8.26206C42.4541 8.92589 42.3105 9.59968 42.2061 10.2801C41.8691 12.1941 41.4491 14.5801 39.9671 16.1611C39.3692 16.8819 38.6258 17.4683 37.7855 17.8819C36.9452 18.2955 36.027 18.5269 35.0911 18.5611H35.0441C34.3603 18.5695 33.6953 18.3373 33.1652 17.9052C32.6351 17.4731 32.2737 16.8685 32.1441 16.1971C31.8751 14.7611 31.8591 12.9181 33.8081 10.1581Z" fill="#1C819D"/>
<path id="Vector_2" d="M18.3821 10.1871C19.7327 10.8526 20.9123 11.8195 21.8301 13.0131C22.1098 13.4473 22.3652 13.8966 22.5951 14.3591C23.3891 15.8661 24.4761 17.9291 26.4071 19.0061C27.5364 19.6723 28.8182 20.0363 30.1291 20.0631C30.3352 20.0633 30.5411 20.0529 30.7461 20.0321C30.9402 20.0076 31.1171 19.9082 31.2389 19.7552C31.3608 19.6022 31.4181 19.4076 31.3985 19.2129C31.3789 19.0183 31.2841 18.839 31.1342 18.7133C30.9843 18.5876 30.7912 18.5254 30.5961 18.5401C29.3841 18.6214 28.1764 18.3267 27.1381 17.6961C25.5951 16.8361 24.6681 15.0751 23.9221 13.6601C23.6647 13.1436 23.3772 12.6428 23.0611 12.1601C22.4143 11.2657 21.6219 10.4862 20.7171 9.85406C22.8941 9.51706 26.6321 9.31506 29.5991 11.0861C29.7701 11.188 29.9745 11.2179 30.1675 11.1692C30.3604 11.1204 30.5261 10.997 30.6281 10.8261C30.7301 10.6551 30.76 10.4507 30.7112 10.2577C30.6625 10.0647 30.5391 9.89903 30.3681 9.79706C25.3481 6.80006 18.7621 8.70506 18.4831 8.78806C18.337 8.83154 18.2076 8.91851 18.1122 9.03739C18.0167 9.15627 17.9598 9.30141 17.9489 9.45347C17.9381 9.60553 17.9738 9.75729 18.0514 9.88853C18.1289 10.0198 18.2447 10.1243 18.3831 10.1881L18.3821 10.1871Z" fill="#1C819D"/>
<path id="Vector_3" d="M33.4091 16.7449C33.4988 16.7854 33.5957 16.8077 33.6941 16.8107C33.7925 16.8137 33.8905 16.7973 33.9825 16.7623C34.0746 16.7274 34.1588 16.6747 34.2305 16.6072C34.3021 16.5397 34.3598 16.4587 34.4001 16.3689C35.0774 14.9875 35.8808 13.6716 36.8001 12.4379C38.1734 10.594 39.7429 8.90478 41.4811 7.39991C41.634 7.27261 41.7301 7.08978 41.7482 6.89165C41.7662 6.69352 41.7049 6.49631 41.5776 6.34341C41.4503 6.19052 41.2675 6.09445 41.0693 6.07635C40.8712 6.05826 40.674 6.11961 40.5211 6.24691C38.6834 7.82773 37.0275 9.60838 35.5841 11.5559C34.6053 12.8737 33.7513 14.2798 33.0331 15.7559C32.9523 15.937 32.9465 16.1427 33.017 16.328C33.0874 16.5133 33.2284 16.6632 33.4091 16.7449Z" fill="#1C819D"/>
<path id="Vector_4" d="M25.5059 10.8511C25.4155 10.8117 25.3183 10.7905 25.2198 10.7887C25.1212 10.7869 25.0233 10.8045 24.9315 10.8405C24.8398 10.8765 24.756 10.9303 24.6851 10.9987C24.6141 11.0671 24.5573 11.1488 24.5179 11.2391C24.4785 11.3295 24.4573 11.4267 24.4555 11.5253C24.4536 11.6238 24.4712 11.7217 24.5073 11.8135C24.5433 11.9052 24.597 11.989 24.6654 12.06C24.7338 12.1309 24.8155 12.1877 24.9059 12.2271C26.2063 12.8145 27.4576 13.5051 28.6479 14.2921C28.7293 14.3474 28.8208 14.3861 28.9171 14.4059C29.0134 14.4258 29.1128 14.4265 29.2094 14.4079C29.306 14.3893 29.398 14.3519 29.4801 14.2977C29.5622 14.2435 29.6328 14.1736 29.6879 14.0921C29.7432 14.0107 29.7819 13.9191 29.8017 13.8227C29.8216 13.7263 29.8223 13.6269 29.8037 13.5302C29.7851 13.4335 29.7477 13.3414 29.6935 13.2592C29.6393 13.177 29.5694 13.1063 29.4879 13.0511C28.2234 12.2095 26.8915 11.4736 25.5059 10.8511Z" fill="#1C819D"/>
<path id="Vector_5" d="M46.944 26.5839C46.1521 23.588 44.8836 20.739 43.187 18.1459C43.1285 18.0666 43.055 17.9996 42.9707 17.9487C42.8864 17.8978 42.7928 17.8639 42.6954 17.8492C42.598 17.8344 42.4986 17.839 42.403 17.8626C42.3073 17.8863 42.2173 17.9285 42.138 17.9869C42.0586 18.0454 41.9916 18.1189 41.9407 18.2032C41.8898 18.2876 41.856 18.3811 41.8412 18.4785C41.8264 18.5759 41.831 18.6753 41.8546 18.7709C41.8783 18.8666 41.9205 18.9566 41.979 19.0359C43.5739 21.4961 44.7668 24.1946 45.513 27.0299C46.5012 30.4413 46.7531 34.0238 46.252 37.5399C46.2065 37.854 46.0493 38.1412 45.8092 38.3487C45.5692 38.5563 45.2623 38.6703 44.945 38.6699H44.4C44.2192 37.2876 43.5417 36.0182 42.4939 35.0985C41.4461 34.1789 40.0996 33.6717 38.7055 33.6717C37.3113 33.6717 35.9648 34.1789 34.917 35.0985C33.8692 36.0182 33.1918 37.2876 33.011 38.6699H15.28C15.1 37.287 14.423 36.0169 13.3752 35.0966C12.3274 34.1763 10.9805 33.6688 9.58597 33.6688C8.19142 33.6688 6.84453 34.1763 5.79675 35.0966C4.74897 36.0169 4.07191 37.287 3.89197 38.6699H2.94797C2.62199 38.6712 2.3072 38.5512 2.06473 38.3333C1.82227 38.1154 1.66945 37.8152 1.63597 37.4909C1.30153 35.5259 1.43863 33.5096 2.03597 31.6079C2.95697 29.5809 6.88897 27.0859 8.32497 26.2959C8.37013 26.2718 8.41241 26.2426 8.45097 26.2089C8.53997 26.1339 17.393 18.6089 22.02 17.0159C22.1131 16.9839 22.1991 16.9338 22.2729 16.8686C22.3467 16.8033 22.407 16.7241 22.4502 16.6356C22.4934 16.5471 22.5188 16.4509 22.5248 16.3525C22.5309 16.2542 22.5175 16.1556 22.4855 16.0624C22.4534 15.9693 22.4033 15.8833 22.3381 15.8095C22.2728 15.7357 22.1937 15.6754 22.1051 15.6322C22.0166 15.589 21.9204 15.5636 21.8221 15.5576C21.7237 15.5515 21.6251 15.5649 21.532 15.5969C16.789 17.2279 8.38397 24.2969 7.53197 25.0199C6.86097 25.3959 1.92097 28.2319 0.668966 30.9869C-0.151034 32.7999 -0.0700343 35.6099 0.143966 37.6459C0.214858 38.3389 0.540573 38.9807 1.05794 39.4471C1.5753 39.9135 2.24743 40.1711 2.94397 40.1699H3.88797C4.06791 41.5528 4.74497 42.823 5.79275 43.7432C6.84053 44.6635 8.18742 45.171 9.58197 45.171C10.9765 45.171 12.3234 44.6635 13.3712 43.7432C14.419 42.823 15.096 41.5528 15.276 40.1699H33.007C33.1878 41.5523 33.8652 42.8217 34.913 43.7414C35.9608 44.661 37.3073 45.1681 38.7015 45.1681C40.0956 45.1681 41.4421 44.661 42.4899 43.7414C43.5377 42.8217 44.2152 41.5523 44.396 40.1699H44.945C45.6244 40.1691 46.2808 39.9233 46.7938 39.4777C47.3068 39.0321 47.642 38.4166 47.738 37.7439C48.2684 34.0097 47.9977 30.2054 46.944 26.5839ZM9.58597 43.6689C8.74709 43.6697 7.92676 43.4221 7.22836 42.9574C6.52997 42.4927 5.98475 41.8317 5.66143 41.0576C5.3381 40.2835 5.25114 39.4311 5.4115 38.6077C5.57186 37.7843 5.97237 37.0268 6.56255 36.4306C7.15272 35.8345 7.90616 35.4263 8.72791 35.2577C9.54965 35.089 10.4029 35.1674 11.1802 35.4829C11.9575 35.7984 12.624 36.3369 13.0957 37.0306C13.5674 37.7243 13.8233 38.5421 13.831 39.3809C13.831 39.3949 13.823 39.4059 13.823 39.4199C13.823 39.4339 13.83 39.4449 13.831 39.4589C13.8199 40.5781 13.368 41.6478 12.5733 42.436C11.7786 43.2241 10.7052 43.6671 9.58597 43.6689ZM38.701 43.6689C37.8606 43.6689 37.0391 43.4197 36.3403 42.9529C35.6416 42.486 35.097 41.8224 34.7754 41.046C34.4538 40.2696 34.3697 39.4152 34.5336 38.591C34.6976 37.7668 35.1022 37.0097 35.6965 36.4154C36.2907 35.8212 37.0478 35.4165 37.872 35.2526C38.6963 35.0886 39.5506 35.1728 40.327 35.4944C41.1034 35.816 41.767 36.3606 42.2339 37.0593C42.7008 37.7581 42.95 38.5796 42.95 39.4199C42.9486 40.5466 42.5004 41.6267 41.7036 42.4233C40.9069 43.2199 39.8276 43.6679 38.701 43.6689Z" fill="#1C819D"/>
<path id="Vector_6" d="M35.8671 23.8502C36.1144 23.5145 36.2855 23.1289 36.3686 22.7203C36.4517 22.3117 36.4447 21.8899 36.3481 21.4842C36.327 21.3867 36.2866 21.2944 36.2294 21.2127C36.1721 21.131 36.0992 21.0616 36.0148 21.0084C35.9303 20.9552 35.8362 20.9195 35.7377 20.9032C35.6393 20.8868 35.5386 20.8903 35.4416 20.9134C35.3445 20.9365 35.2531 20.9787 35.1725 21.0376C35.092 21.0965 35.024 21.1708 34.9726 21.2563C34.9211 21.3417 34.8872 21.4366 34.8729 21.5354C34.8586 21.6341 34.8641 21.7347 34.8891 21.8312C34.935 22.0247 34.9383 22.2258 34.8987 22.4206C34.8592 22.6155 34.7777 22.7994 34.6601 22.9597C34.5424 23.1199 34.3914 23.2527 34.2173 23.3488C34.0433 23.4449 33.8504 23.502 33.6521 23.5162L12.9771 24.8652C12.7782 24.8715 12.5899 24.9565 12.4537 25.1015C12.3174 25.2466 12.2444 25.4398 12.2506 25.6387C12.2568 25.8377 12.3418 26.0259 12.4869 26.1622C12.632 26.2984 12.8252 26.3715 13.0241 26.3652H13.0741L33.7531 25.0162C34.1691 24.9872 34.5737 24.8679 34.9388 24.6665C35.3039 24.4651 35.6207 24.1866 35.8671 23.8502Z" fill="#1C819D"/>
<path id="Vector_7" d="M24.0729 35.0452C24.2384 35.1555 24.441 35.1956 24.636 35.1565C24.831 35.1175 25.0026 35.0027 25.1129 34.8372L27.3999 31.4152C27.4752 31.3022 27.5184 31.171 27.525 31.0354C27.5315 30.8998 27.5012 30.765 27.4371 30.6453C27.3731 30.5256 27.2777 30.4256 27.1613 30.3558C27.0449 30.286 26.9117 30.2492 26.7759 30.2492H24.7499L26.2499 27.9932C26.3058 27.9113 26.345 27.8191 26.365 27.7219C26.3851 27.6248 26.3856 27.5246 26.3667 27.4273C26.3478 27.3299 26.3098 27.2373 26.2548 27.1547C26.1998 27.0721 26.129 27.0013 26.0465 26.9463C25.964 26.8913 25.8714 26.8532 25.774 26.8342C25.6767 26.8152 25.5765 26.8157 25.4794 26.8357C25.3822 26.8557 25.29 26.8947 25.208 26.9506C25.1261 27.0065 25.056 27.078 25.0019 27.1612L22.7209 30.5832C22.6456 30.6961 22.6024 30.8274 22.5958 30.963C22.5893 31.0986 22.6197 31.2334 22.6837 31.3531C22.7478 31.4727 22.8431 31.5728 22.9595 31.6426C23.076 31.7123 23.2092 31.7492 23.3449 31.7492H25.3649L23.8649 34.0052C23.7549 34.1708 23.715 34.3732 23.7539 34.5682C23.7929 34.7631 23.9076 34.9347 24.0729 35.0452Z" fill="#1C819D"/>
</g>
<defs>
<clipPath id="clip0_120_12089">
<rect width="48" height="48" fill="white"/>
</clipPath>
</defs>
</svg>
