<svg width="46" height="46" viewBox="0 0 46 46" fill="none" xmlns="http://www.w3.org/2000/svg">
<g id="family-1248029 1" clip-path="url(#clip0_120_12073)">
<path id="Vector" d="M44.1922 14.047C43.0339 11.3082 41.3756 8.84856 39.2633 6.73624C37.1514 4.62438 34.6918 2.96608 31.9525 1.80734C29.1171 0.60812 26.1045 0 23 0C19.8955 0 16.8834 0.60812 14.047 1.8078C11.3082 2.96608 8.84856 4.62438 6.73624 6.7367C4.62438 8.84856 2.96608 11.3082 1.80734 14.0475C0.60812 16.8834 0 19.8955 0 23C0 31.4415 4.61196 39.1906 12.0364 43.2234C12.2677 43.349 12.5493 43.338 12.7701 43.1949C12.9909 43.0519 13.116 42.7993 13.0957 42.5367L11.5239 22.0124C11.4977 21.6711 11.2346 21.396 10.8951 21.3541C10.5552 21.3118 10.2336 21.5156 10.1251 21.8403L8.01412 28.1732C7.93592 28.4073 7.77078 28.5959 7.54814 28.7035C7.32596 28.8112 7.07526 28.8241 6.84342 28.7399C6.37652 28.5706 6.1341 28.0692 6.29096 27.5986L8.3743 21.356C8.7308 20.2874 9.5358 19.4327 10.5823 19.0113C11.6978 18.5619 13.3892 17.8521 15.284 16.9588C16.5444 17.5453 17.5614 17.9202 18.3936 18.2266C19.797 18.7432 20.7239 19.0845 21.7976 20.0091L21.8486 20.0532L21.8988 20.0822C21.7824 20.182 21.666 20.2809 21.551 20.378C20.3854 21.3633 19.1802 22.3822 19.1802 24.1882C19.1802 25.4104 19.7441 26.5034 20.625 27.2214C18.3374 28.2044 16.7284 30.4975 16.7284 33.1582V35.8703C16.7284 36.9205 17.5826 37.7747 18.6328 37.7747H19.481L19.8265 44.3302C18.5219 44.1379 17.2394 43.827 15.991 43.3978C15.6156 43.2685 15.2067 43.4686 15.0779 43.844C14.9491 44.2193 15.1487 44.6283 15.5241 44.7571C17.1359 45.3109 18.8002 45.6803 20.4953 45.8638C20.5013 45.8648 20.5068 45.8657 20.5128 45.8666C20.5312 45.8684 20.5496 45.8703 20.5675 45.8721C20.6071 45.8763 20.6466 45.8799 20.6862 45.8841C20.7961 45.8951 20.9065 45.9052 21.0174 45.9149C21.0496 45.9177 21.0813 45.9209 21.1135 45.9232C21.2442 45.9338 21.3753 45.943 21.5064 45.9512C21.5505 45.954 21.5947 45.9568 21.6389 45.9591C21.7516 45.9655 21.8647 45.9715 21.9774 45.9765C22.0046 45.9779 22.0312 45.9793 22.0579 45.9802C22.1936 45.9857 22.3289 45.9894 22.4646 45.9926C22.5018 45.9936 22.5395 45.994 22.5768 45.9949C22.7189 45.9982 22.8597 46 23 46C23.1362 46 23.2728 45.9982 23.4094 45.9959C23.4526 45.9949 23.4959 45.994 23.5391 45.9931C23.6371 45.9908 23.7351 45.988 23.8326 45.9844C23.8768 45.983 23.9209 45.9816 23.9651 45.9798C24.0948 45.9742 24.2245 45.9683 24.3538 45.9604C24.3947 45.9581 24.4357 45.9549 24.4761 45.9526C24.5727 45.9466 24.6693 45.9397 24.7659 45.9324C24.8152 45.9287 24.8639 45.925 24.9127 45.9209C25.0171 45.9121 25.1211 45.9029 25.2246 45.8928C25.2558 45.8896 25.2871 45.8873 25.3179 45.8841C25.4352 45.8726 25.5521 45.8597 25.6689 45.8464C25.6731 45.8459 25.6777 45.845 25.6818 45.8441C27.2242 45.6647 28.7408 45.3312 30.2142 44.8449C30.5909 44.7207 30.7956 44.3141 30.6714 43.9369C30.5472 43.5602 30.1406 43.3555 29.7634 43.4797C28.6525 43.8463 27.5154 44.12 26.3603 44.3008L26.7849 37.7743H27.1805C28.4597 37.7743 29.5007 36.7333 29.5007 35.454V33.0961C29.5007 31.3863 28.8337 29.7795 27.6225 28.5724C27.0268 27.979 26.3355 27.5177 25.5829 27.2026C26.4509 26.4845 27.0048 25.3998 27.0048 24.1877C27.0048 22.9747 26.2462 21.695 24.7498 20.384C24.5695 20.2262 24.3901 20.0776 24.2158 19.9401C26.3759 18.0177 27.8714 16.8944 31.0132 16.3553C32.8127 16.6566 34.075 17.0959 35.0722 17.7634C36.0746 18.4345 36.8865 19.3987 37.6998 20.8868L39.5733 25.984L39.5756 25.9905C39.7684 26.5001 39.5264 27.0655 39.0246 27.2775C38.7702 27.3847 38.4905 27.3847 38.2366 27.2766C38.0678 27.2049 37.9261 27.0908 37.8203 26.9473L35.5474 20.8656C35.4085 20.4939 34.9945 20.3049 34.6224 20.4442C34.2507 20.5832 34.0616 20.9972 34.201 21.3693L35.9168 25.9583C35.9159 26.0461 35.9306 26.1358 35.9642 26.2232L36.3483 27.2246C36.3989 27.3567 36.4605 27.4827 36.5314 27.6018L38.3769 32.5376H34.241C33.8689 32.5376 33.5584 32.8215 33.5253 33.1922L32.6793 42.6489C32.6559 42.9111 32.7778 43.1655 32.9972 43.3113C33.1172 43.3913 33.2562 43.4318 33.3951 43.4318C33.5101 43.4318 33.6255 43.4042 33.7309 43.3486C37.3727 41.4244 40.44 38.5512 42.6011 35.0396C44.8247 31.4263 46 27.2633 46 23C46 19.8955 45.3919 16.8834 44.1922 14.047ZM15.2844 15.364C13.9624 14.6938 11.9821 13.3782 11.9821 11.5124C11.9821 9.77914 13.3924 8.36878 15.1257 8.36878C16.859 8.36878 18.2694 9.77914 18.2694 11.5124C18.2694 12.3956 17.8751 14.0516 15.2844 15.364ZM28.0646 33.0965V35.4545C28.0646 35.9412 27.6685 36.3372 27.1819 36.3372H26.1128C25.7338 36.3372 25.4201 36.6312 25.3957 37.0093L24.9095 44.4779C24.8828 44.4802 24.8556 44.4829 24.829 44.4852C24.7406 44.4926 24.6528 44.4995 24.5645 44.5055C24.5079 44.5096 24.4508 44.5137 24.3943 44.5174C24.2977 44.5234 24.2011 44.5289 24.1045 44.5335C24.0548 44.5358 24.0051 44.5386 23.9554 44.5409C23.8519 44.5455 23.748 44.5487 23.6445 44.5519C23.6003 44.5533 23.5561 44.5547 23.5124 44.5561C23.4034 44.5588 23.2949 44.5597 23.1858 44.5607C23.1458 44.5611 23.1058 44.5616 23.0662 44.562C22.9604 44.5625 22.8546 44.5611 22.7488 44.5602C22.7028 44.5597 22.6568 44.5597 22.6113 44.5588C22.5069 44.557 22.4029 44.5538 22.2985 44.5505C22.2511 44.5492 22.2042 44.5478 22.1568 44.5464C22.0556 44.5427 21.9549 44.5372 21.8537 44.5321C21.8035 44.5294 21.7529 44.5275 21.7028 44.5243C21.6062 44.5188 21.5096 44.5114 21.4135 44.5045C21.3679 44.5013 21.3224 44.4981 21.2768 44.4949L20.8826 37.019C20.8624 36.6372 20.5473 36.3382 20.165 36.3382H18.6346C18.377 36.3382 18.1677 36.1289 18.1677 35.8713V33.1591C18.1677 30.406 20.3798 28.158 23.0989 28.1488C23.1049 28.1488 23.1109 28.1488 23.1164 28.1488C24.4352 28.1488 25.6754 28.6612 26.6096 29.5923C27.5476 30.5265 28.0646 31.7717 28.0646 33.0965ZM25.5682 24.1882C25.5682 25.5525 24.4582 26.663 23.0934 26.663C21.729 26.663 20.619 25.553 20.619 24.1882C20.619 23.1044 21.3265 22.4512 22.4802 21.4756C22.6923 21.2962 22.9112 21.1108 23.1288 20.9167C24.2489 21.7746 25.5682 23.0561 25.5682 24.1882ZM30.855 14.875C29.0683 14.605 27.8677 13.2535 27.8677 11.512C27.8677 9.77868 29.2781 8.36832 31.0114 8.36832C32.7446 8.36832 34.155 9.77868 34.155 11.512C34.155 13.2535 32.9544 14.605 31.1678 14.875C31.1153 14.8828 31.0633 14.8911 31.0118 14.8994C30.9598 14.8911 30.9079 14.8828 30.855 14.875ZM41.377 34.2856C39.5871 37.1938 37.1344 39.6354 34.2332 41.4092L34.8984 33.9751H39.4133C39.6488 33.9751 39.8696 33.8597 40.0039 33.666C40.1382 33.4724 40.169 33.2253 40.0867 33.0045L38.5121 28.7942C38.5526 28.796 38.5926 28.7974 38.6331 28.7974C38.9556 28.7974 39.2785 28.7325 39.5858 28.6023C40.8011 28.0885 41.3876 26.7205 40.923 25.4863L39.014 20.2929L38.9891 20.2469C37.5917 17.6723 36.0654 16.273 33.5326 15.4693C33.8514 15.2522 34.143 14.9983 34.402 14.7085C35.1813 13.8363 35.593 12.731 35.593 11.5124C35.593 8.9861 33.5377 6.93128 31.0118 6.93128C28.486 6.93128 26.4307 8.98656 26.4307 11.5124C26.4307 12.731 26.8424 13.8363 27.6216 14.7085C27.8912 15.0103 28.1957 15.2725 28.5292 15.4956C26.2853 16.2546 24.8244 17.4671 23.0179 19.0845C22.8671 18.9874 22.7521 18.917 22.6867 18.8779C21.436 17.8153 20.3108 17.4009 18.8908 16.8783C18.2901 16.6571 17.6378 16.4169 16.8815 16.0968C17.4998 15.6892 18.0329 15.2292 18.4561 14.7361C19.286 13.7683 19.7069 12.6836 19.7069 11.5129C19.7069 8.98656 17.6516 6.93174 15.1257 6.93174C12.5999 6.93174 10.5446 8.98702 10.5446 11.5129C10.5446 13.2429 11.65 14.847 13.6878 16.1156C12.2277 16.7813 10.9462 17.3162 10.0459 17.6787C8.60752 18.2583 7.50168 19.4327 7.01132 20.9019L4.92798 27.1446C4.7334 27.7283 4.77342 28.3549 5.0416 28.9087C5.30978 29.4625 5.77576 29.883 6.35444 30.0927C6.95428 30.3099 7.60104 30.2763 8.17512 29.9984C8.7492 29.7206 9.17654 29.2339 9.37848 28.629L10.3629 25.6758L11.558 41.2818C5.28264 37.3488 1.4375 30.4626 1.4375 23C1.4375 20.0887 2.00744 17.2652 3.13168 14.6073C4.21774 12.0396 5.77254 9.7336 7.75284 7.7533C9.73314 5.773 12.0396 4.2182 14.6068 3.13214C17.2652 2.00744 20.0887 1.4375 23 1.4375C25.9113 1.4375 28.7348 2.00744 31.3927 3.13168C33.9604 4.21774 36.2664 5.77254 38.2467 7.75284C40.227 9.73314 41.7818 12.0396 42.8679 14.6068C43.9921 17.2647 44.562 20.0887 44.562 22.9995C44.5625 26.9969 43.4608 30.8996 41.377 34.2856Z" fill="#1C819D"/>
</g>
<defs>
<clipPath id="clip0_120_12073">
<rect width="46" height="46" fill="white"/>
</clipPath>
</defs>
</svg>
