<svg width="24" height="24" viewBox="0 0 24 24" fill="none" xmlns="http://www.w3.org/2000/svg">
<g id="filter-svgrepo-com 1">
<path id="Vector" fill-rule="evenodd" clip-rule="evenodd" d="M2 6.58333C2 5.98503 2.49747 5.5 3.11111 5.5H20.8889C21.5026 5.5 22 5.98503 22 6.58333C22 7.18164 21.5026 7.66667 20.8889 7.66667H3.11111C2.49747 7.66667 2 7.18164 2 6.58333ZM5.33333 12C5.33333 11.4017 5.8308 10.9167 6.44444 10.9167H17.5556C18.1692 10.9167 18.6667 11.4017 18.6667 12C18.6667 12.5983 18.1692 13.0833 17.5556 13.0833H6.44444C5.8308 13.0833 5.33333 12.5983 5.33333 12ZM8.66667 17.4167C8.66667 16.8183 9.16413 16.3333 9.77778 16.3333H14.2222C14.8359 16.3333 15.3333 16.8183 15.3333 17.4167C15.3333 18.015 14.8359 18.5 14.2222 18.5H9.77778C9.16413 18.5 8.66667 18.015 8.66667 17.4167Z" fill="#90A3C4"/>
</g>
</svg>
