<svg width="347" height="125" viewBox="0 0 347 125" fill="none" xmlns="http://www.w3.org/2000/svg">
<path d="M95.6571 95.338C95.6571 95.338 95.6221 94.6683 95.554 93.4141C95.5289 93.1012 95.5343 92.7489 95.4814 92.3688C95.4222 91.9869 95.3594 91.5709 95.2904 91.12C95.2169 90.6717 95.1658 90.1867 95.0529 89.6766C94.9238 89.1728 94.7839 88.6403 94.6387 88.0728C93.9923 85.8441 92.9999 83.1492 91.1764 80.5063C89.3951 77.8554 86.8974 75.1874 83.6449 73.1632C81.9999 72.1994 80.2472 71.2697 78.3108 70.6673C77.8302 70.5185 77.3453 70.3688 76.8531 70.2164C76.3546 70.1151 75.8508 70.0119 75.3434 69.9088C74.3285 69.6471 73.3092 69.6498 72.289 69.5189C71.7825 69.4624 71.1908 69.5081 70.6395 69.4983L69.7941 69.5018L69.37 69.5045C69.2884 69.5045 69.422 69.5045 69.388 69.5081L69.3386 69.5144L69.2373 69.5252L69.0374 69.5494C67.9661 69.6883 66.8822 69.7403 65.8208 70.0335C63.6674 70.4261 61.5929 71.3083 59.5856 72.2998C57.5802 73.3263 55.7495 74.7338 54.0587 76.2946C52.385 77.8921 50.9596 79.7604 49.7089 81.7462C48.513 83.7741 47.6031 85.9759 46.9316 88.2566L46.53 89.9967L46.4215 90.4306L46.3659 90.8465L46.2503 91.6794L46.1203 92.5131C46.0674 92.7722 46.0844 93.1613 46.0611 93.4786L45.9688 95.485C45.9786 95.2089 45.9714 95.4411 45.9759 95.3927L45.9786 95.4501L45.984 95.5621L45.993 95.7863L46.0154 96.2363L46.0521 97.1319C46.0494 97.7343 46.1499 98.3233 46.2359 98.9141C46.3561 100.109 46.6654 101.258 46.9235 102.421C47.0759 102.996 47.2938 103.551 47.4686 104.117C47.569 104.397 47.6461 104.687 47.76 104.96L48.1186 105.771C48.3696 106.305 48.548 106.879 48.851 107.385L49.7 108.937C50.9434 110.928 52.3796 112.79 54.0471 114.395C55.7406 115.955 57.5721 117.366 59.5785 118.391C60.0608 118.7 60.5969 118.861 61.099 119.111C61.6109 119.333 62.1084 119.603 62.64 119.752C63.1708 119.928 63.6943 120.104 64.217 120.279C64.7405 120.449 65.2533 120.523 65.7706 120.652C66.7558 120.941 67.9742 121.006 69.0858 121.144L69.2992 121.166L69.4086 121.179L69.4615 121.184C69.4919 121.188 69.3584 121.182 69.4373 121.184L69.8407 121.187L70.6421 121.193C71.1747 121.182 71.7108 121.231 72.2352 121.177C73.2787 121.049 74.342 121.039 75.3461 120.779C75.8526 120.677 76.3582 120.573 76.8567 120.469C77.348 120.331 77.8329 120.17 78.317 120.017C80.249 119.414 82.0025 118.486 83.6494 117.519C86.901 115.493 89.3987 112.823 91.1791 110.173C93.0026 107.528 93.9923 104.833 94.6387 102.602C94.7848 102.037 94.9255 101.503 95.0546 100.998C95.1658 100.491 95.2169 100.003 95.2922 99.5551C95.3594 99.1068 95.4222 98.69 95.4814 98.3081C95.5343 97.928 95.5289 97.5748 95.554 97.2619C95.6221 96.0068 95.6571 95.338 95.6571 95.338ZM95.6571 95.338C95.6571 95.338 95.6275 96.0068 95.5746 97.2619C95.5531 97.5748 95.5621 97.928 95.5119 98.3117C95.4581 98.6927 95.3962 99.1095 95.3334 99.5605C95.2644 100.011 95.2178 100.502 95.1111 101.011C94.9937 101.519 94.8664 102.058 94.7319 102.629C94.151 104.888 93.2276 107.623 91.5332 110.414C89.8604 113.206 87.5088 116.107 84.3245 118.566C81.1285 120.983 77.0951 122.902 72.5131 123.743C71.9439 123.868 71.3593 123.888 70.7712 123.964L69.8882 124.058L69.4435 124.107L68.9433 124.11C67.7931 124.099 66.7003 124.185 65.395 124C62.8337 123.803 60.4113 123.147 57.9558 122.195C55.5201 121.225 53.216 119.8 51.0367 118.128C48.9012 116.391 46.998 114.286 45.3636 111.938C43.7652 109.556 42.5226 106.891 41.6324 104.087L41.0694 101.947C40.8614 101.238 40.8157 100.493 40.6848 99.764C40.5727 99.0324 40.4499 98.3009 40.4374 97.5577L40.3773 96.4487L40.3477 95.8929L40.3352 95.615L40.328 95.476L40.3244 95.4061C40.3244 95.3183 40.3182 95.5092 40.3244 95.1892L40.4284 93.1828C40.4589 92.8332 40.4428 92.5472 40.5064 92.1455L40.6714 90.9909L40.8444 89.8407L40.9349 89.2651L41.0676 88.7281L41.6217 86.5864C42.5208 83.7822 43.7508 81.1142 45.3538 78.7322C46.9818 76.3762 48.8958 74.2784 51.0268 72.5338C53.208 70.8609 55.5111 69.4373 57.9495 68.4673C60.3826 67.5116 62.8758 66.8509 65.3456 66.6671C66.5738 66.4851 67.7993 66.5577 68.9953 66.5488L69.2194 66.5506H69.3324H69.3862C69.3924 66.5488 69.5592 66.5577 69.5107 66.5577L69.9366 66.6035L70.7775 66.6976C71.3432 66.7738 71.873 66.7891 72.4593 66.9119C73.6194 67.1808 74.7956 67.3395 75.8445 67.7411C76.3797 67.9151 76.9095 68.089 77.4349 68.2629C77.9468 68.4736 78.4452 68.7057 78.9428 68.9245C80.942 69.769 82.709 70.9291 84.3289 72.1017C87.5115 74.5625 89.8648 77.4681 91.5332 80.2607C93.2294 83.0506 94.151 85.7876 94.7328 88.0468C94.8664 88.6152 94.9937 89.1567 95.1129 89.6659C95.2178 90.1751 95.2644 90.6645 95.3334 91.1146C95.398 91.5646 95.4581 91.9815 95.5119 92.3643C95.5621 92.7462 95.5531 93.0995 95.5746 93.4123C95.6275 94.6683 95.6571 95.338 95.6571 95.338Z" fill="white" fill-opacity="0.1"/>
<path d="M267.062 95.338C267.062 95.338 267.021 94.6683 266.956 93.4141C266.934 93.1012 266.938 92.7489 266.883 92.3688C266.825 91.9869 266.761 91.5709 266.692 91.12C266.617 90.6717 266.568 90.1867 266.457 89.6766C266.327 89.1728 266.188 88.6403 266.041 88.0728C265.397 85.8441 264.401 83.1492 262.577 80.5063C260.798 77.8554 258.299 75.1874 255.049 73.1632C253.403 72.1994 251.648 71.2697 249.715 70.6673C249.233 70.5185 248.748 70.3688 248.258 70.2164C247.757 70.1151 247.254 70.0119 246.744 69.9088C245.729 69.6471 244.712 69.6498 243.694 69.5189C243.186 69.4624 242.593 69.5081 242.043 69.4983L241.197 69.5018L240.771 69.5045C240.689 69.5045 240.822 69.5045 240.791 69.5081L240.741 69.5144L240.642 69.5252L240.44 69.5494C239.37 69.6883 238.283 69.7403 237.222 70.0335C235.068 70.4261 232.994 71.3083 230.988 72.2998C228.984 73.3263 227.152 74.7338 225.463 76.2946C223.789 77.8921 222.362 79.7604 221.111 81.7462C219.914 83.7741 219.005 85.9759 218.331 88.2566L217.932 89.9967L217.825 90.4306L217.77 90.8465L217.651 91.6794L217.525 92.5131C217.471 92.7722 217.485 93.1613 217.459 93.4786L217.373 95.485C217.38 95.2089 217.373 95.4411 217.378 95.3927L217.381 95.4501L217.387 95.5621L217.397 95.7863L217.416 96.2363L217.454 97.1319C217.452 97.7343 217.554 98.3233 217.638 98.9141C217.756 100.109 218.068 101.258 218.327 102.421C218.481 102.996 218.695 103.551 218.872 104.117C218.971 104.397 219.05 104.687 219.162 104.96L219.521 105.771C219.772 106.305 219.951 106.879 220.254 107.385L221.101 108.937C222.346 110.928 223.781 112.79 225.449 114.395C227.143 115.955 228.975 117.366 230.982 118.391C231.459 118.7 231.999 118.861 232.499 119.111C233.011 119.333 233.509 119.603 234.043 119.752C234.57 119.928 235.098 120.104 235.619 120.279C236.142 120.449 236.653 120.523 237.174 120.652C238.158 120.941 239.373 121.006 240.49 121.144L240.702 121.166L240.807 121.179L240.862 121.184C240.895 121.188 240.761 121.182 240.841 121.184L241.244 121.187L242.046 121.193C242.577 121.182 243.114 121.231 243.637 121.177C244.682 121.049 245.745 121.039 246.748 120.779C247.256 120.677 247.758 120.573 248.263 120.469C248.751 120.331 249.236 120.17 249.716 120.017C251.653 119.414 253.406 118.486 255.053 117.519C258.303 115.493 260.801 112.823 262.581 110.173C264.402 107.528 265.397 104.833 266.041 102.602C266.188 102.037 266.327 101.503 266.458 100.998C266.568 100.491 266.617 100.003 266.692 99.5551C266.761 99.1068 266.825 98.69 266.883 98.3081C266.938 97.928 266.934 97.5748 266.956 97.2619C267.021 96.0068 267.062 95.338 267.062 95.338ZM267.062 95.338C267.062 95.338 267.029 96.0068 266.976 97.2619C266.955 97.5748 266.967 97.928 266.912 98.3117C266.857 98.6927 266.797 99.1095 266.735 99.5605C266.665 100.011 266.619 100.502 266.516 101.011C266.395 101.519 266.267 102.058 266.135 102.629C265.551 104.888 264.631 107.623 262.934 110.414C261.265 113.206 258.911 116.107 255.727 118.566C252.53 120.983 248.497 122.902 243.918 123.743C243.347 123.868 242.761 123.888 242.175 123.964L241.293 124.058L240.845 124.107L240.346 124.11C239.194 124.099 238.103 124.185 236.797 124C234.236 123.803 231.812 123.147 229.359 122.195C226.921 121.225 224.619 119.8 222.441 118.128C220.303 116.391 218.401 114.286 216.767 111.938C215.165 109.556 213.928 106.891 213.035 104.087L212.472 101.947C212.262 101.238 212.217 100.493 212.085 99.764C211.973 99.0324 211.853 98.3009 211.839 97.5577L211.779 96.4487L211.75 95.8929L211.735 95.615L211.731 95.476L211.727 95.4061C211.728 95.3183 211.718 95.5092 211.727 95.1892L211.831 93.1828C211.859 92.8332 211.845 92.5472 211.908 92.1455L212.075 90.9909L212.245 89.8407L212.338 89.2651L212.469 88.7281L213.025 86.5864C213.923 83.7822 215.155 81.1142 216.758 78.7322C218.384 76.3762 220.296 74.2784 222.427 72.5338C224.608 70.8609 226.915 69.4373 229.352 68.4673C231.785 67.5116 234.279 66.8509 236.749 66.6671C237.975 66.4851 239.2 66.5577 240.399 66.5488L240.623 66.5506H240.734H240.791C240.792 66.5488 240.961 66.5577 240.914 66.5577L241.338 66.6035L242.176 66.6976C242.746 66.7738 243.274 66.7891 243.861 66.9119C245.022 67.1808 246.198 67.3395 247.249 67.7411C247.782 67.9151 248.312 68.089 248.838 68.2629C249.348 68.4736 249.847 68.7057 250.344 68.9245C252.343 69.769 254.109 70.9291 255.73 72.1017C258.914 74.5625 261.267 77.4681 262.939 80.2607C264.632 83.0506 265.551 85.7876 266.135 88.0468C266.268 88.6152 266.395 89.1567 266.516 89.6659C266.619 90.1751 266.665 90.6645 266.735 91.1146C266.797 91.5646 266.857 91.9815 266.912 92.3643C266.967 92.7462 266.955 93.0995 266.976 93.4123C267.029 94.6683 267.062 95.338 267.062 95.338Z" fill="white" fill-opacity="0.1"/>
<path d="M255.504 95.3377C255.504 95.3377 255.48 94.9629 255.441 94.2601C255.436 93.9096 255.371 93.481 255.287 92.979C255.244 92.7289 255.216 92.4545 255.154 92.1712C255.078 91.8906 254.998 91.593 254.91 91.2774C254.537 90.034 253.964 88.535 252.914 87.0872C251.893 85.634 250.458 84.1996 248.636 83.1462C247.714 82.6424 246.723 82.1896 245.654 81.9099C245.388 81.8427 245.12 81.7719 244.848 81.7038C244.575 81.6616 244.297 81.6204 244.017 81.5782C243.46 81.4626 242.923 81.4993 242.385 81.4563C242.118 81.4402 241.773 81.4805 241.468 81.4877L240.994 81.5137L240.755 81.5245C240.68 81.5236 240.821 81.5289 240.798 81.5289L240.771 81.5334L240.717 81.5433L240.609 81.5612C240.037 81.6679 239.461 81.7253 238.901 81.9108C237.768 82.1807 236.695 82.7141 235.672 83.2887C234.651 83.8903 233.729 84.6631 232.884 85.5049C232.046 86.3646 231.355 87.3615 230.738 88.3898C230.159 89.4495 229.717 90.5799 229.392 91.74C229.275 92.3353 229.111 92.9368 229.071 93.4407L229.008 93.8351C228.98 93.9508 228.989 94.1901 228.975 94.3614L228.952 94.9244L228.943 95.205L228.937 95.3448L228.933 95.4156L228.93 95.4506C228.932 95.395 228.926 95.6219 228.932 95.3377C228.944 96.5551 229.104 97.76 229.384 98.9362C229.715 100.095 230.145 101.231 230.73 102.289C231.341 103.326 232.039 104.316 232.874 105.183C233.721 106.022 234.642 106.801 235.664 107.401C235.906 107.578 236.185 107.675 236.444 107.824C236.707 107.955 236.962 108.115 237.239 108.206C237.514 108.316 237.789 108.424 238.059 108.533C238.332 108.638 238.586 108.688 238.855 108.773C239.336 108.956 240.044 109.026 240.66 109.133L240.781 109.151L240.838 109.16L240.868 109.164C240.894 109.165 240.752 109.161 240.823 109.165L241.038 109.175L241.47 109.201C241.756 109.212 242.048 109.255 242.33 109.239C244.611 109.216 246.815 108.585 248.639 107.534C250.464 106.481 251.899 105.044 252.917 103.588C253.966 102.14 254.537 100.64 254.913 99.3988C254.998 99.0841 255.078 98.7847 255.154 98.505C255.216 98.2217 255.244 97.9474 255.287 97.6972C255.371 97.1961 255.436 96.7667 255.441 96.4153C255.48 95.7115 255.504 95.3377 255.504 95.3377ZM255.504 95.3377C255.504 95.3377 255.488 95.7115 255.461 96.4153C255.462 96.7667 255.406 97.197 255.331 97.7026C255.292 97.9554 255.269 98.2298 255.211 98.5167C255.146 98.8026 255.078 99.1065 255.005 99.4248C254.691 100.696 254.193 102.236 253.274 103.831C252.358 105.421 251.078 107.106 249.301 108.562C247.523 109.998 245.254 111.215 242.608 111.804C242.279 111.89 241.939 111.917 241.6 111.973L241.089 112.047L240.829 112.087L240.518 112.098C239.863 112.119 239.281 112.2 238.48 112.119C236.935 112.052 235.519 111.729 234.037 111.215C232.573 110.698 231.18 109.889 229.859 108.92C228.564 107.914 227.393 106.686 226.394 105.29C225.408 103.879 224.641 102.288 224.094 100.603C223.548 98.9102 223.334 97.1181 223.281 95.3377L223.297 94.9073L223.314 94.6267L223.346 94.0664C223.363 93.8638 223.353 93.7257 223.391 93.4711L223.492 92.7539C223.611 91.7633 223.842 90.9224 224.085 90.069C224.637 88.3853 225.395 86.7878 226.382 85.3785C227.378 83.9754 228.556 82.7544 229.848 81.7423C231.172 80.7732 232.564 79.9618 234.03 79.4446C235.491 78.9291 236.975 78.6019 238.429 78.5472C239.153 78.4692 239.871 78.5373 240.567 78.5597L240.899 78.5777L241.134 78.6135L241.603 78.6879C241.925 78.7444 242.207 78.7668 242.553 78.8511C243.234 79.0313 243.928 79.1559 244.523 79.4114C244.828 79.5252 245.129 79.6382 245.429 79.7503C245.718 79.891 246.001 80.0291 246.284 80.1653C247.418 80.6961 248.4 81.4142 249.305 82.1063C251.08 83.5649 252.363 85.2503 253.275 86.8416C254.194 88.4382 254.691 89.9775 255.006 91.2505C255.078 91.5697 255.146 91.8736 255.211 92.1596C255.269 92.4447 255.292 92.719 255.331 92.9709C255.406 93.4756 255.462 93.906 255.461 94.2601C255.488 94.962 255.504 95.3377 255.504 95.3377Z" fill="white" fill-opacity="0.1"/>
<path d="M84.1013 95.3377C84.1013 95.3377 84.0816 94.9629 84.0376 94.2601C84.034 93.9096 83.9704 93.481 83.887 92.979C83.8422 92.7289 83.8126 92.4545 83.7516 92.1712C83.6754 91.8906 83.5939 91.593 83.5096 91.2774C83.1349 90.034 82.562 88.535 81.5131 87.0872C80.4947 85.634 79.0567 84.1996 77.2332 83.1462C76.3098 82.6424 75.3201 82.1896 74.2515 81.9099C73.9861 81.8427 73.7181 81.7719 73.4473 81.7038C73.173 81.6616 72.896 81.6204 72.6181 81.5782C72.0577 81.4626 71.5207 81.4993 70.982 81.4563C70.7139 81.4402 70.3688 81.4805 70.064 81.4877L69.5897 81.5137L69.353 81.5245C69.2777 81.5236 69.4202 81.5289 69.3951 81.5289L69.3692 81.5334L69.3136 81.5433L69.2087 81.5612C68.634 81.6679 68.0612 81.7253 67.5008 81.9108C66.365 82.1807 65.2937 82.7141 64.2672 83.2887C63.247 83.8903 62.3272 84.6631 61.4827 85.5049C60.6427 86.3646 59.9551 87.3615 59.3347 88.3898C58.7546 89.4495 58.318 90.5799 57.989 91.74C57.8743 92.3353 57.7111 92.9368 57.669 93.4407L57.6062 93.8351C57.5766 93.9508 57.5838 94.1901 57.5731 94.3614L57.5515 94.9244L57.5399 95.205L57.5345 95.3448L57.5291 95.4156L57.5273 95.4506C57.5273 95.395 57.5246 95.6219 57.5291 95.3377C57.5426 96.5551 57.7013 97.76 57.9828 98.9362C58.3127 100.095 58.7421 101.231 59.3275 102.289C59.938 103.326 60.6373 104.316 61.4701 105.183C62.3182 106.022 63.2398 106.801 64.2627 107.401C64.5074 107.578 64.7836 107.675 65.0418 107.824C65.3045 107.955 65.56 108.115 65.8397 108.206C66.1131 108.316 66.3874 108.424 66.6564 108.533C66.9298 108.638 67.1853 108.688 67.4534 108.773C67.9339 108.956 68.6403 109.026 69.2589 109.133L69.3772 109.151L69.4346 109.16L69.466 109.164C69.4902 109.165 69.3485 109.161 69.4221 109.165L69.6381 109.175L70.0666 109.201C70.3553 109.212 70.6431 109.255 70.9273 109.239C73.2098 109.216 75.4134 108.585 77.2359 107.534C79.0621 106.481 80.4956 105.044 81.5158 103.588C82.5638 102.14 83.1349 100.64 83.5096 99.3988C83.5957 99.0841 83.6763 98.7847 83.7516 98.505C83.8126 98.2217 83.8422 97.9474 83.887 97.6972C83.9704 97.1961 84.034 96.7667 84.0376 96.4153C84.0816 95.7115 84.1013 95.3377 84.1013 95.3377ZM84.1013 95.3377C84.1013 95.3377 84.0851 95.7115 84.0582 96.4153C84.06 96.7667 84.0036 97.197 83.9291 97.7026C83.8906 97.9554 83.8655 98.2298 83.8072 98.5167C83.7418 98.8026 83.6763 99.1065 83.6037 99.4248C83.2935 100.696 82.7906 102.236 81.8699 103.831C80.9555 105.421 79.6744 107.106 77.8966 108.562C76.1189 109.998 73.8525 111.215 71.2061 111.804C70.8771 111.89 70.5364 111.917 70.1984 111.973L69.6847 112.047L69.4265 112.087L69.1137 112.098C68.4637 112.119 67.8783 112.2 67.0759 112.119C65.5313 112.052 64.1166 111.729 62.6347 111.215C61.1689 110.698 59.7757 109.889 58.4579 108.92C57.1606 107.914 55.9898 106.686 54.9903 105.29C54.0077 103.879 53.2385 102.288 52.6916 100.603C52.1475 98.9102 51.9323 97.1181 51.8794 95.3377L51.8946 94.9073L51.9108 94.6267L51.944 94.0664C51.9601 93.8638 51.952 93.7257 51.9897 93.4711L52.0901 92.7539C52.2066 91.7633 52.4388 90.9224 52.6827 90.069C53.2358 88.3853 53.9934 86.7878 54.9804 85.3785C55.9746 83.9754 57.1535 82.7544 58.4489 81.7423C59.7686 80.7732 61.1608 79.9618 62.6302 79.4446C64.0888 78.9291 65.5734 78.6019 67.0266 78.5472C67.7492 78.4692 68.4691 78.5373 69.1639 78.5597L69.4965 78.5777L69.7322 78.6135L70.2002 78.6879C70.5221 78.7444 70.8036 78.7668 71.1514 78.8511C71.8327 79.0313 72.5257 79.1559 73.1201 79.4114C73.4231 79.5252 73.7261 79.6382 74.0265 79.7503C74.3133 79.891 74.6002 80.0291 74.8817 80.1653C76.0158 80.6961 76.9957 81.4142 77.9011 82.1063C79.6798 83.5649 80.9609 85.2503 81.8735 86.8416C82.7915 88.4382 83.2935 89.9775 83.6037 91.2505C83.6763 91.5697 83.7436 91.8736 83.8072 92.1596C83.8655 92.4447 83.8906 92.719 83.9291 92.9709C84.0036 93.4756 84.06 93.906 84.0582 94.2601C84.0851 94.962 84.1013 95.3377 84.1013 95.3377Z" fill="white" fill-opacity="0.1"/>
<path d="M261.169 45.219C261.169 45.219 304.873 59.8597 346.316 49.5258C346.316 49.5258 313.05 74.7828 261.169 45.219Z" fill="white" fill-opacity="0.1"/>
<path d="M266.792 61.4591C266.792 61.4591 306.755 76.0998 344.647 65.7659C344.647 65.7659 314.234 91.0211 266.792 61.4591Z" fill="white" fill-opacity="0.1"/>
<path d="M275.557 76.8844C275.557 76.8844 306.524 91.5215 335.888 81.1893C335.888 81.1893 312.318 106.445 275.557 76.8844Z" fill="white" fill-opacity="0.1"/>
<path d="M10.5903 90.7017C10.5903 90.7017 8.32039 65.4868 55.3865 52.4069C79.703 45.6491 123.914 47.3821 136.321 50.397C136.321 50.397 137.118 40.7023 144.792 36.1104C144.792 36.1104 132.768 33.8127 127.397 38.1177C122.025 42.4244 115.886 43.8606 100.792 43.8606C85.6997 43.8606 37.6045 42.4056 0 73.2756L10.5903 90.7017Z" fill="white" fill-opacity="0.1"/>
<path d="M20.4419 53.7417C20.4419 53.7417 41.5607 38.4457 64.3344 36.7325C87.1072 35.0211 114.988 33.4558 126.741 24.9651C139.795 15.533 156.689 -13.4462 220.919 8.9384C220.919 8.9384 176.514 -0.456009 156.942 11.601C137.376 23.658 132.194 36.2313 111.088 39.4793C89.984 42.73 57.5766 38.4 20.4419 53.7417Z" fill="white" fill-opacity="0.1"/>
<path d="M12.568 93.0607L16.1172 81.6787C16.1172 81.6787 14.3664 98.7741 36.7304 103.468C36.7304 103.468 30.645 105.791 26.4789 103.468C22.3093 101.143 16.3503 98.3867 12.568 93.0607Z" fill="white" fill-opacity="0.1"/>
<path d="M207.025 103.468L205.091 96.1044L100.753 103.468H207.025Z" fill="white" fill-opacity="0.1"/>
<path d="M272.187 19.1722C272.187 19.1722 308.515 40.9894 331.281 21.756C331.281 21.756 300.074 27.498 272.187 19.1722Z" fill="white" fill-opacity="0.1"/>
<path d="M146.583 48.3105C146.583 48.3105 151.251 36.8991 154.833 36.0725C154.833 36.0725 233.543 50.6845 233.306 34.3503C233.139 22.8572 216.42 19.7491 215.91 19.1726C215.399 18.5997 231.643 17.8019 236.759 29.6832C241.874 41.5644 229.851 49.3137 204.654 47.8785C188.029 46.9318 162.698 43.7169 146.583 48.3105Z" fill="white" fill-opacity="0.1"/>
<path d="M103.508 96.1045L104.805 90.7022L169.137 92.0147L103.508 96.1045Z" fill="white" fill-opacity="0.1"/>
<path d="M323.575 38.4507L323.608 38.4077L323.456 50.3975C326.46 39.5113 327.85 31.2949 327.85 31.2949C317.252 45.3439 286.961 34.4685 264.258 26.3498C226.526 12.8566 205.74 11.1372 205.74 11.1372C205.74 11.1372 257.862 28.1437 285.746 39.0514C314.426 50.2737 323.017 39.2289 323.575 38.4507Z" fill="white" fill-opacity="0.1"/>
<path d="M303.74 93.4024C298.007 97.5908 286.851 98.9884 286.851 98.9884C280.143 99.6554 273.981 97.2546 273.981 97.2546L270.803 103.468H286.405C293.058 103.059 298.815 99.1695 303.742 93.4024C303.741 93.4024 303.74 93.4024 303.74 93.4024Z" fill="white" fill-opacity="0.1"/>
<path d="M150.719 58.9248C150.719 58.9248 162.105 54.3482 175.918 55.6562C175.918 55.6562 159.48 46.5021 150.719 58.9248Z" fill="white" fill-opacity="0.1"/>
</svg>
