<svg width="50" height="50" viewBox="0 0 50 50" fill="none" xmlns="http://www.w3.org/2000/svg">
<g id="reshot-icon-images-sharing-Y4SR7JTEKW 1" clip-path="url(#clip0_120_18857)">
<g id="12-Images Sharing">
<path id="Vector" d="M31.25 14.0625H15.625V15.625H31.25V14.0625Z" fill="#90A3C4"/>
<path id="Vector_2" d="M49.2188 9.37489H36.7188V10.9374H48.4375V42.1874H45.3125V14.8436C45.3125 14.6364 45.2302 14.4377 45.0837 14.2912C44.9372 14.1447 44.7384 14.0624 44.5312 14.0624H35.1562V5.78895L36.9453 7.57801L38.0469 6.47645L34.9219 3.35145C34.7755 3.20594 34.5775 3.12427 34.3711 3.12427C34.1647 3.12427 33.9667 3.20594 33.8203 3.35145L30.6953 6.47645L31.7969 7.57801L33.5938 5.78895V14.0624C33.5938 14.4768 33.7584 14.8742 34.0514 15.1672C34.3444 15.4603 34.7418 15.6249 35.1562 15.6249H43.75V45.3124H1.5625V15.6249H11.7188C12.1332 15.6249 12.5306 15.4603 12.8236 15.1672C13.1166 14.8742 13.2812 14.4768 13.2812 14.0624V5.78895L15.0703 7.57801L16.1719 6.47645L13.0469 3.35145C12.9005 3.20594 12.7025 3.12427 12.4961 3.12427C12.2897 3.12427 12.0917 3.20594 11.9453 3.35145L8.82031 6.47645L9.92188 7.57801L11.7188 5.78895V14.0624H3.90625V10.9374H10.1562V9.37489H3.125C2.9178 9.37489 2.71909 9.4572 2.57257 9.60371C2.42606 9.75022 2.34375 9.94894 2.34375 10.1561V14.0624H0.78125C0.57405 14.0624 0.375336 14.1447 0.228823 14.2912C0.08231 14.4377 0 14.6364 0 14.8436L0 46.0936C0 46.3008 0.08231 46.4995 0.228823 46.6461C0.375336 46.7926 0.57405 46.8749 0.78125 46.8749H44.5312C44.7384 46.8749 44.9372 46.7926 45.0837 46.6461C45.2302 46.4995 45.3125 46.3008 45.3125 46.0936V43.7499H49.2188C49.4259 43.7499 49.6247 43.6676 49.7712 43.5211C49.9177 43.3745 50 43.1758 50 42.9686V10.1561C50 9.94894 49.9177 9.75022 49.7712 9.60371C49.6247 9.4572 49.4259 9.37489 49.2188 9.37489Z" fill="#90A3C4"/>
<path id="Vector_3" d="M3.90625 18.75V42.1875C3.90625 42.3947 3.98856 42.5934 4.13507 42.7399C4.28159 42.8864 4.4803 42.9688 4.6875 42.9688H40.625C40.8322 42.9688 41.0309 42.8864 41.1774 42.7399C41.3239 42.5934 41.4062 42.3947 41.4062 42.1875V18.75C41.4062 18.5428 41.3239 18.3441 41.1774 18.1976C41.0309 18.0511 40.8322 17.9688 40.625 17.9688H4.6875C4.4803 17.9688 4.28159 18.0511 4.13507 18.1976C3.98856 18.3441 3.90625 18.5428 3.90625 18.75ZM39.8438 41.4062H30.7891L24.5391 35.1562L30.4688 29.2344L39.8438 38.6094V41.4062ZM5.46875 19.5312H39.8438V36.3984L31.0234 27.5703C30.8771 27.4248 30.6791 27.3431 30.4727 27.3431C30.2663 27.3431 30.0683 27.4248 29.9219 27.5703L23.4375 34.0547L16.9844 27.6016C16.838 27.4561 16.64 27.3744 16.4336 27.3744C16.2272 27.3744 16.0292 27.4561 15.8828 27.6016L5.46875 38.0078V19.5312ZM5.46875 40.2188L16.4062 29.2812L28.5859 41.4062H5.46875V40.2188Z" fill="#90A3C4"/>
<path id="Vector_4" d="M23.4375 28.9063C24.2101 28.9063 24.9653 28.6772 25.6077 28.2479C26.2501 27.8187 26.7507 27.2086 27.0464 26.4949C27.3421 25.7811 27.4194 24.9957 27.2687 24.2379C27.118 23.4802 26.7459 22.7842 26.1996 22.2379C25.6533 21.6916 24.9573 21.3195 24.1996 21.1688C23.4418 21.0181 22.6564 21.0954 21.9426 21.3911C21.2289 21.6868 20.6188 22.1874 20.1896 22.8298C19.7603 23.4722 19.5313 24.2274 19.5312 25C19.5312 26.036 19.9428 27.0296 20.6754 27.7621C21.4079 28.4947 22.4015 28.9063 23.4375 28.9063ZM23.4375 22.6563C23.9011 22.6563 24.3542 22.7937 24.7396 23.0512C25.125 23.3088 25.4254 23.6748 25.6028 24.1031C25.7802 24.5314 25.8267 25.0026 25.7362 25.4572C25.6458 25.9119 25.4226 26.3295 25.0948 26.6573C24.767 26.9851 24.3494 27.2083 23.8947 27.2987C23.4401 27.3892 22.9689 27.3427 22.5406 27.1653C22.1123 26.988 21.7463 26.6875 21.4887 26.3021C21.2312 25.9167 21.0938 25.4636 21.0938 25C21.0938 24.3784 21.3407 23.7823 21.7802 23.3427C22.2198 22.9032 22.8159 22.6563 23.4375 22.6563Z" fill="#90A3C4"/>
<path id="Vector_5" d="M24.2188 9.375H22.6562V10.9375H24.2188V9.375Z" fill="#90A3C4"/>
<path id="Vector_6" d="M31.25 9.375H25.7812V10.9375H31.25V9.375Z" fill="#90A3C4"/>
<path id="Vector_7" d="M21.0938 9.375H16.4062V10.9375H21.0938V9.375Z" fill="#90A3C4"/>
</g>
</g>
<defs>
<clipPath id="clip0_120_18857">
<rect width="50" height="50" fill="white"/>
</clipPath>
</defs>
</svg>
