<svg width="24" height="24" viewBox="0 0 24 24" fill="none" xmlns="http://www.w3.org/2000/svg">
<g id="10723370611595759819 1" clip-path="url(#clip0_133_663)">
<path id="Vector" d="M17.25 23.25H6.75C3.45 23.25 0.75 20.55 0.75 17.25V6.75C0.75 3.45 3.45 0.75 6.75 0.75H17.25C20.55 0.75 23.25 3.45 23.25 6.75V17.25C23.25 20.55 20.55 23.25 17.25 23.25Z" stroke="#1C819D" stroke-width="1.5" stroke-miterlimit="10" stroke-linecap="round" stroke-linejoin="round"/>
<path id="Vector_2" d="M12 17.25C14.8995 17.25 17.25 14.8995 17.25 12C17.25 9.10051 14.8995 6.75 12 6.75C9.10051 6.75 6.75 9.10051 6.75 12C6.75 14.8995 9.10051 17.25 12 17.25Z" stroke="#1C819D" stroke-width="1.5" stroke-miterlimit="10" stroke-linecap="round" stroke-linejoin="round"/>
<path id="Vector_3" d="M18 6C18.4142 6 18.75 5.66421 18.75 5.25C18.75 4.83579 18.4142 4.5 18 4.5C17.5858 4.5 17.25 4.83579 17.25 5.25C17.25 5.66421 17.5858 6 18 6Z" stroke="#1C819D" stroke-width="1.5" stroke-miterlimit="10" stroke-linecap="round" stroke-linejoin="round"/>
</g>
<defs>
<clipPath id="clip0_133_663">
<rect width="24" height="24" fill="white"/>
</clipPath>
</defs>
</svg>
