<svg width="46" height="46" viewBox="0 0 46 46" fill="none" xmlns="http://www.w3.org/2000/svg">
<g id="noun-rich-3424269 1">
<path id="Vector" d="M43.9849 21.105C43.9913 21.0803 43.9963 21.0553 44 21.0301V21.0229C43.9992 20.938 43.9823 20.8541 43.9501 20.7755C43.9167 20.6972 43.8689 20.626 43.809 20.5655L36.8141 13.5722L38.0892 2.73105C38.1038 2.60318 38.0806 2.47382 38.0223 2.35907C37.964 2.24432 37.8733 2.14924 37.7613 2.08566C37.6494 2.02208 37.5213 1.99281 37.3929 2.0015C37.2645 2.01018 37.1415 2.05643 37.0392 2.13449L28.9876 8.3265L23.4876 2.21521C23.4245 2.1495 23.3488 2.09723 23.265 2.06151C23.1812 2.0258 23.0911 2.00739 23 2.00739C22.9089 2.00739 22.8188 2.0258 22.735 2.06151C22.6512 2.09723 22.5755 2.1495 22.5124 2.21521L17.0124 8.3265L8.96216 2.13449C8.85983 2.05643 8.73681 2.01018 8.6084 2.0015C8.47999 1.99281 8.35187 2.02208 8.23996 2.08566C8.12806 2.14924 8.03732 2.24432 7.97904 2.35907C7.92075 2.47382 7.89749 2.60318 7.91216 2.73105L9.18594 13.5722L2.19228 20.5655C2.13245 20.626 2.08458 20.6972 2.05119 20.7755C2.01856 20.854 2.00119 20.9379 2 21.0229V21.0301C2.0037 21.0551 2.00874 21.0799 2.01509 21.1043C2.01903 21.1609 2.03028 21.2167 2.04856 21.2703C2.06686 21.3087 2.08884 21.3452 2.11419 21.3793C2.13069 21.4118 2.14979 21.443 2.17128 21.4725L22.515 43.786C22.515 43.79 22.5236 43.7913 22.5268 43.7946C22.5301 43.7979 22.5511 43.8156 22.5629 43.8261C22.5747 43.8366 22.5846 43.849 22.5977 43.8589C22.629 43.8811 22.6621 43.9004 22.6968 43.9166C22.7119 43.9245 22.7237 43.9383 22.7395 43.9449C22.7552 43.9514 22.7578 43.9495 22.767 43.9527C22.7762 43.956 22.7926 43.9646 22.8064 43.9691L22.8149 43.9731C22.9357 44.009 23.0643 44.009 23.1851 43.9731L23.1943 43.9685C23.2074 43.9646 23.2192 43.958 23.2323 43.9527C23.2418 43.9506 23.2513 43.948 23.2605 43.9449C23.2756 43.9362 23.2901 43.9266 23.3038 43.916C23.3384 43.9001 23.3713 43.8809 23.4023 43.8589C23.4147 43.849 23.4246 43.8372 23.4371 43.8261C23.4495 43.8149 23.462 43.8064 23.4732 43.7946C23.4843 43.7828 23.4817 43.79 23.485 43.786L43.8287 21.4725C43.8502 21.4431 43.8691 21.4119 43.8852 21.3793C43.9109 21.3452 43.9329 21.3084 43.9508 21.2697C43.9693 21.2165 43.9808 21.1611 43.9849 21.105ZM22.3438 20.3739H17.9213L22.3438 15.5088V20.3739ZM23.6562 15.5088L28.0787 20.3739H23.6562V15.5088ZM22.3438 21.6864V38.7871L17.3142 21.6864H22.3438ZM23.6562 21.6864H28.6858L23.6562 38.7871V21.6864ZM24.4838 14.4673H34.6412L29.5625 20.0543L24.4838 14.4673ZM16.4375 20.0543L11.3588 14.4673H21.5162L16.4375 20.0543ZM9.85203 14.762L14.9537 20.3739H4.24109L9.85203 14.762ZM15.9466 21.6864L21.5674 40.7987L4.14331 21.6864H15.9466ZM30.056 21.6864H41.8567L24.4326 40.7987L30.056 21.6864ZM31.0489 20.3739L36.1506 14.762L41.7589 20.3739H31.0489ZM16.6941 9.73685C16.825 9.8375 16.9891 9.88509 17.1535 9.87013C17.318 9.85517 17.4707 9.77875 17.5813 9.65613L23 3.63869L28.4187 9.65941C28.5293 9.78203 28.682 9.85845 28.8465 9.87341C29.0109 9.88837 29.175 9.84078 29.3059 9.74013L36.6034 4.12696L35.5409 13.1548H10.4591L9.39659 4.12368L16.6941 9.73685Z" fill="#1C819D"/>
</g>
</svg>
