<svg width="18" height="18" viewBox="0 0 18 18" fill="none" xmlns="http://www.w3.org/2000/svg">
<g id="map-pin">
<path id="Vector" d="M15.7505 7.50049C15.7505 12.7505 9.00049 17.2505 9.00049 17.2505C9.00049 17.2505 2.25049 12.7505 2.25049 7.50049C2.25049 5.71028 2.96165 3.99339 4.22752 2.72752C5.49339 1.46165 7.21028 0.750488 9.00049 0.750488C10.7907 0.750488 12.5076 1.46165 13.7735 2.72752C15.0393 3.99339 15.7505 5.71028 15.7505 7.50049Z" stroke="#90A3C4" stroke-width="1.5" stroke-linecap="round" stroke-linejoin="round"/>
<path id="Vector_2" d="M8.99951 9.74951C10.2422 9.74951 11.2495 8.74215 11.2495 7.49951C11.2495 6.25687 10.2422 5.24951 8.99951 5.24951C7.75687 5.24951 6.74951 6.25687 6.74951 7.49951C6.74951 8.74215 7.75687 9.74951 8.99951 9.74951Z" stroke="#90A3C4" stroke-width="1.5" stroke-linecap="round" stroke-linejoin="round"/>
</g>
</svg>
