<svg width="40" height="40" viewBox="0 0 40 40" fill="none" xmlns="http://www.w3.org/2000/svg">
<g id="motorcycle-so-svgrepo-com 1" clip-path="url(#clip0_120_12051)">
<g id="Group">
<path id="Vector" d="M25.0603 11C27.0695 11 29.2646 12.6719 31.267 15.2006C32.0319 16.1665 32.6942 17.1837 33.1009 18.0025C33.3153 18.4343 33.4562 18.8039 33.511 19.1117C33.6335 19.8004 33.3626 20.5 32.4527 20.5L32.1694 20.4937C32.0294 20.4864 31.8455 20.4712 31.4792 20.4399C30.527 20.3588 29.8116 20.3631 29.0772 20.5198L29.3337 21.0512C29.6494 20.9864 29.9768 20.9524 30.3125 20.9524C32.9013 20.9524 35 22.9778 35 25.4762C35 27.9746 32.9013 30 30.3125 30C27.7237 30 25.625 27.9746 25.625 25.4762C25.625 23.9467 26.4115 22.5944 27.6156 21.7756L27.3421 21.2097C26.9509 21.4973 26.4974 21.952 25.8465 22.6861L25.0177 23.6398L24.6259 24.0841C23.2341 25.6343 22.3144 26.3204 21.129 26.3771L20.9656 26.381L14.281 26.382C13.8463 28.4464 11.9549 30 9.6875 30C7.09867 30 5 27.9746 5 25.4762C5 22.9778 7.09867 20.9524 9.6875 20.9524C11.9552 20.9524 13.8468 22.5065 14.2812 24.5713L15.1119 24.5714L15.1116 24.5452C15.0649 23.7924 14.7228 22.9749 13.8697 22.0444L13.6922 21.8568C13.5801 21.7417 13.4671 21.633 13.3532 21.5305C12.0573 20.3636 10.9919 20.0727 9.01624 20.0586L8.47656 20.0592C6.53852 20.0592 5.08912 17.4746 5.41029 16.1238C5.57785 15.419 6.1238 15.2278 6.83226 15.2237C7.10083 15.2222 7.39382 15.2503 7.78877 15.308L8.86809 15.4762C8.98263 15.4919 9.05217 15.4985 9.10424 15.4998L9.1336 15.4999C11.0391 15.4696 12.5053 15.7114 13.853 16.173L14.1763 16.2908C14.556 16.4335 15.0547 16.6301 15.2229 16.6904L15.3509 16.7343C15.3677 16.7413 15.3745 16.746 15.3757 16.7497L15.3744 16.7516L15.6107 16.5572C16.9216 15.4907 17.799 15.0375 18.7792 14.8437L18.9533 14.8122C20.2122 14.6039 21.488 14.6379 22.7652 14.8457L23.0159 14.8896L21.8099 13.0774C21.6984 12.9073 21.6176 12.7808 21.5516 12.6734L21.4478 12.4978C21.4183 12.4453 21.3937 12.3979 21.3729 12.3531C21.3274 12.2552 21.2961 12.1679 21.279 12.0499C21.2133 11.5977 21.4605 11.0706 22.087 11.0065L22.2174 11L25.0603 11ZM9.6875 22.7619C8.1342 22.7619 6.875 23.9771 6.875 25.4762C6.875 26.9752 8.1342 28.1905 9.6875 28.1905C10.9118 28.1905 11.9533 27.4356 12.3397 26.3818L8.75 26.381V24.5714L12.34 24.5715C11.9539 23.5172 10.9121 22.7619 9.6875 22.7619ZM30.3125 22.7619C30.2624 22.7619 30.2125 22.7632 30.163 22.7657L31.7127 25.9742L30.0134 26.739L28.4291 23.4604C27.8586 23.9571 27.5 24.6762 27.5 25.4762C27.5 26.9752 28.7592 28.1905 30.3125 28.1905C31.8658 28.1905 33.125 26.9752 33.125 25.4762C33.125 23.9771 31.8658 22.7619 30.3125 22.7619ZM25.0603 12.8095H23.8587L24.6505 13.9972C25.07 14.6309 25.4618 15.2314 25.858 15.8509L25.9114 15.9396C25.9762 16.0564 25.9766 16.1269 25.9789 16.5151L25.866 16.7343C25.7053 17.0379 25.6583 17.0586 25.3763 17.1831L25.0693 17.2348C25.0257 17.2401 24.9995 17.2405 24.9736 17.2376L24.8185 17.2105L24.5853 17.1462L24.4291 17.0987C24.0832 16.9938 23.8013 16.915 23.4629 16.834C22.0335 16.4915 20.6143 16.3733 19.2701 16.5957C18.5291 16.7183 17.8857 17.047 16.6022 18.1197C16.5488 18.1644 16.494 18.2058 16.4377 18.2441C15.9023 18.6073 15.3443 18.6305 14.6914 18.4276L14.5077 18.3631C14.1475 18.2303 13.4633 17.9596 13.2258 17.8783C12.1731 17.5177 11.0321 17.3152 9.54391 17.3071L9.0474 17.3093C8.89566 17.3066 8.74907 17.2913 8.46036 17.2476L7.47796 17.0929C7.44422 17.0881 7.41164 17.0835 7.38017 17.0793L7.42039 17.1648C7.67046 17.6667 8.12165 18.2497 8.47656 18.2497L8.73175 18.2489C11.3197 18.2365 12.8473 18.6002 14.6324 20.2075C14.7761 20.3369 14.9179 20.4733 15.0578 20.6167C16.3556 21.9478 16.9063 23.2253 16.9829 24.4291L16.9888 24.5714H20.9656C21.5151 24.5714 22.2202 24.0215 23.4146 22.6674L24.2875 21.6614C25.5753 20.1924 26.2471 19.592 27.1961 19.212C28.5515 18.6691 29.6155 18.5264 30.987 18.5927L31.3203 18.6118L31.2985 18.5685C30.9821 17.9763 30.5173 17.2642 29.9814 16.562L29.7772 16.2994C28.1685 14.2678 26.4286 12.9128 25.1998 12.8152L25.0603 12.8095ZM23.75 18.2381V20.0476H18.125V18.2381H23.75Z" fill="#fff"/>
</g>
</g>
<defs>
<clipPath id="clip0_120_12051">
<rect width="40" height="40" fill="white"/>
</clipPath>
</defs>
</svg>
