<svg width="274" height="170" viewBox="0 0 274 170" fill="none" xmlns="http://www.w3.org/2000/svg">
<g clip-path="url(#clip0_120_20435)">
<path d="M206.64 49.1693C197.795 44.7699 187.863 43.0336 178.05 44.1715C165.446 45.5525 155.522 47.1745 143.45 43.0098C133.317 39.5135 124.067 34.3185 114.406 29.9673C94.6339 21.0733 75.01 18.3223 60.1866 35.8638C52.4012 45.189 46.312 55.8076 42.1958 67.2368C35.5102 85.4797 30.0192 105.685 33.0278 124.744C36.8638 148.9 60.2031 160.243 88.1456 151.492C99.4454 147.952 110.356 142.779 122.412 141.294C147.62 138.186 168.444 158.714 198.661 153.733C250.776 145.141 246.923 68.7329 206.64 49.1693Z" fill="#1C819D"/>
<path opacity="0.7" d="M206.64 49.1693C197.795 44.7699 187.863 43.0336 178.05 44.1715C165.446 45.5525 155.522 47.1745 143.45 43.0098C133.317 39.5135 124.067 34.3185 114.406 29.9673C94.6339 21.0733 75.01 18.3223 60.1866 35.8638C52.4012 45.189 46.312 55.8076 42.1958 67.2368C35.5102 85.4797 30.0192 105.685 33.0278 124.744C36.8638 148.9 60.2031 160.243 88.1456 151.492C99.4454 147.952 110.356 142.779 122.412 141.294C147.62 138.186 168.444 158.714 198.661 153.733C250.776 145.141 246.923 68.7329 206.64 49.1693Z" fill="white"/>
<path d="M214.745 100.741L209.106 105.608L204.492 99.459" stroke="black" stroke-width="0.548" stroke-miterlimit="10"/>
<path d="M214.745 125.089L209.106 129.955L204.492 123.807" stroke="black" stroke-width="0.548" stroke-miterlimit="10"/>
<path d="M186.528 111.335L182.177 115.094L178.615 110.349" stroke="black" stroke-width="0.548" stroke-miterlimit="10"/>
<path d="M186.528 130.132L182.177 133.891L178.615 129.14" stroke="black" stroke-width="0.548" stroke-miterlimit="10"/>
<path d="M54.789 133.298L51.2434 136.355L48.3445 132.492" stroke="black" stroke-width="0.548" stroke-miterlimit="10"/>
<path d="M238.38 160.034C238.38 162.188 193.121 163.931 137.285 163.931C81.4492 163.931 36.168 162.172 36.168 160.034C36.168 157.897 81.4328 156.144 137.263 156.144C193.093 156.144 238.38 157.886 238.38 160.034Z" fill="#1C819D"/>
<path opacity="0.5" d="M238.38 160.034C238.38 162.188 193.121 163.931 137.285 163.931C81.4492 163.931 36.168 162.172 36.168 160.034C36.168 157.897 81.4328 156.144 137.263 156.144C193.093 156.144 238.38 157.886 238.38 160.034Z" fill="white"/>
<path d="M54.5039 151.605L94.0202 151.189L184.44 149.874L219.611 146.882L225.776 148.098C225.776 148.098 229.168 145.325 228.905 138.338C228.642 131.351 223.211 119.706 206.651 118.671C190.09 117.635 180.769 128.502 176.889 133.938C173.009 139.374 97.6918 140.925 97.6918 140.925C97.6918 140.925 96.141 125.658 82.4245 122.035C68.7081 118.413 59.9127 123.071 54.7396 128.743C49.5665 134.415 51.1173 149.189 51.1173 149.189L54.5039 151.605Z" fill="black" stroke="black" stroke-width="0.548" stroke-linecap="round" stroke-linejoin="round"/>
<path d="M117.584 102.406C117.584 102.406 121.07 101.683 121.36 103.426C121.65 105.168 121.508 106.04 120.637 106.473C119.304 107.029 117.825 107.131 116.428 106.763C116.101 106.683 115.801 106.52 115.555 106.29C115.309 106.06 115.127 105.771 115.024 105.451C114.922 105.13 114.904 104.789 114.971 104.459C115.038 104.13 115.189 103.823 115.409 103.568C116.026 103.006 116.774 102.607 117.584 102.406Z" fill="white" stroke="black" stroke-width="0.548" stroke-linecap="round" stroke-linejoin="round"/>
<path d="M240.227 126.644C239.936 125.483 234.276 122.436 234.276 122.436C234.276 122.436 229.048 114.764 226.149 111.985C224.566 110.454 222.868 109.047 221.069 107.777C221.069 107.777 227.31 107.196 227.31 106.182C227.31 105.168 225.858 105.02 224.839 104.73C223.82 104.439 216.422 104.587 216.422 104.587H174.478L133.115 106.905L120.346 107.777C120.346 107.777 119.765 106.182 118.604 106.182C117.63 106.148 116.66 106.051 115.699 105.892C115.699 105.892 115.118 104.587 117.151 102.697C119.185 100.806 129.635 94.4275 129.635 94.4275C129.558 93.4491 129.148 92.5266 128.473 91.8135C127.761 91.0233 126.862 90.4241 125.859 90.0709L121.218 89.3475C120.489 89.3475 109.162 95.4413 93.0614 107.925C93.0614 107.925 71.2893 109.667 60.5485 113.295C49.8077 116.923 45.0182 120.841 42.8427 126.354C42.8427 126.354 43.1331 128.245 42.5522 128.825C41.9713 129.406 38.0531 130.711 37.1818 132.163C36.3105 133.615 37.9107 144.498 37.9107 144.498C37.9107 144.498 36.168 145.66 36.8914 146.827C37.6147 147.994 42.5522 150.165 46.6184 150.888C49.1526 151.332 51.7179 151.576 54.2904 151.617H54.4877C54.0492 149.469 53.838 147.282 53.8575 145.09C53.8133 142.413 54.3026 139.753 55.2966 137.267C56.2907 134.781 57.7697 132.517 59.6475 130.608C61.5252 128.699 63.7642 127.183 66.2338 126.148C68.7034 125.113 71.3544 124.58 74.0321 124.58C76.7098 124.58 79.3607 125.113 81.8304 126.148C84.3 127.183 86.539 128.699 88.4167 130.608C90.2945 132.517 91.7735 134.781 92.7675 137.267C93.7616 139.753 94.2508 142.413 94.2067 145.09C94.2067 147.364 94.1355 149.386 94.0039 151.2H95.6479L102.471 150.767L184.402 149.902C184.26 148.438 184.183 146.844 184.183 145.107C184.138 142.334 184.645 139.58 185.675 137.005C186.705 134.43 188.238 132.086 190.183 130.109C192.128 128.132 194.447 126.563 197.004 125.491C199.562 124.419 202.308 123.867 205.081 123.867C207.854 123.867 210.6 124.419 213.157 125.491C215.715 126.563 218.034 128.132 219.979 130.109C221.924 132.086 223.456 134.43 224.486 137.005C225.516 139.58 226.024 142.334 225.979 145.107C225.978 146.117 225.905 147.126 225.76 148.126L233.234 146.559L239.334 140.027C239.793 138.921 240.039 137.738 240.057 136.541C240.079 134.629 240.517 127.806 240.227 126.644Z" fill="white"/>
<mask id="mask0_120_20435" style="mask-type:luminance" maskUnits="userSpaceOnUse" x="36" y="89" width="205" height="63">
<path d="M240.227 126.644C239.936 125.482 234.276 122.435 234.276 122.435C234.276 122.435 229.048 114.763 226.149 111.985C224.566 110.453 222.868 109.046 221.069 107.776C221.069 107.776 227.31 107.195 227.31 106.181C227.31 105.167 225.858 105.019 224.839 104.729C223.82 104.439 216.422 104.587 216.422 104.587H174.478L133.115 106.905L120.346 107.776C120.346 107.776 119.765 106.181 118.604 106.181C117.63 106.148 116.66 106.051 115.699 105.891C115.699 105.891 115.118 104.587 117.151 102.696C119.185 100.805 129.635 94.4267 129.635 94.4267C129.558 93.4482 129.148 92.5257 128.473 91.8127C127.761 91.0224 126.862 90.4233 125.859 90.07L121.218 89.3467C120.489 89.3467 109.162 95.4405 93.0614 107.924C93.0614 107.924 71.2893 109.667 60.5485 113.294C49.8077 116.922 45.0182 120.84 42.8427 126.353C42.8427 126.353 43.1331 128.244 42.5522 128.825C41.9713 129.405 38.0531 130.71 37.1818 132.162C36.3105 133.614 37.9107 144.497 37.9107 144.497C37.9107 144.497 36.168 145.659 36.8914 146.826C37.6147 147.994 42.5522 150.164 46.6184 150.887C49.1526 151.331 51.7179 151.575 54.2904 151.616H54.4877C54.0492 149.468 53.838 147.281 53.8575 145.089C53.8133 142.412 54.3026 139.753 55.2966 137.266C56.2907 134.78 57.7697 132.516 59.6475 130.607C61.5252 128.698 63.7642 127.182 66.2338 126.147C68.7034 125.112 71.3544 124.579 74.0321 124.579C76.7098 124.579 79.3607 125.112 81.8304 126.147C84.3 127.182 86.539 128.698 88.4167 130.607C90.2945 132.516 91.7735 134.78 92.7675 137.266C93.7616 139.753 94.2508 142.412 94.2067 145.089C94.2067 147.363 94.1355 149.386 94.0039 151.199H95.6479L102.471 150.767L184.402 149.901C184.26 148.438 184.183 146.843 184.183 145.106C184.138 142.333 184.645 139.579 185.675 137.004C186.705 134.429 188.238 132.085 190.183 130.108C192.128 128.132 194.447 126.562 197.004 125.49C199.562 124.418 202.308 123.867 205.081 123.867C207.854 123.867 210.6 124.418 213.157 125.49C215.715 126.562 218.034 128.132 219.979 130.108C221.924 132.085 223.456 134.429 224.486 137.004C225.516 139.579 226.024 142.333 225.979 145.106C225.978 146.116 225.905 147.125 225.76 148.125L233.234 146.558L239.334 140.026C239.793 138.92 240.039 137.738 240.057 136.54C240.079 134.628 240.517 127.805 240.227 126.644Z" fill="white"/>
</mask>
<g mask="url(#mask0_120_20435)">
<path d="M240.079 136.513C240.079 135.581 240.183 133.455 240.26 131.395C209.648 111.869 191.712 122.166 168.784 128.742C143.932 135.866 113.436 123.81 85.488 121.07C69.8152 119.536 53.6273 124.358 42.4317 128.923C41.5603 129.542 38.0093 130.786 37.1818 132.162C36.3543 133.537 37.9107 144.497 37.9107 144.497C37.9107 144.497 36.168 145.659 36.8914 146.826C37.6147 147.994 42.5522 150.164 46.6184 150.887C49.1526 151.331 51.7179 151.575 54.2904 151.616H54.4877C54.0492 149.468 53.838 147.281 53.8575 145.089C53.8133 142.412 54.3026 139.752 55.2966 137.266C56.2907 134.78 57.7697 132.516 59.6475 130.607C61.5252 128.698 63.7642 127.182 66.2338 126.147C68.7034 125.112 71.3544 124.579 74.0321 124.579C76.7098 124.579 79.3607 125.112 81.8304 126.147C84.3 127.182 86.5389 128.698 88.4167 130.607C90.2945 132.516 91.7735 134.78 92.7675 137.266C93.7616 139.752 94.2508 142.412 94.2067 145.089C94.2067 147.363 94.1355 149.385 94.0039 151.199H95.6479L102.471 150.766L184.402 149.901C184.26 148.437 184.183 146.843 184.183 145.106C184.138 142.333 184.645 139.579 185.675 137.004C186.705 134.429 188.238 132.085 190.183 130.108C192.128 128.131 194.447 126.562 197.004 125.49C199.562 124.418 202.308 123.866 205.081 123.866C207.854 123.866 210.599 124.418 213.157 125.49C215.715 126.562 218.034 128.131 219.979 130.108C221.924 132.085 223.456 134.429 224.486 137.004C225.516 139.579 226.024 142.333 225.979 145.106C225.978 146.116 225.905 147.125 225.76 148.125L233.234 146.558L239.334 140.026C239.804 138.913 240.057 137.721 240.079 136.513Z" fill="#1C819D"/>
<path opacity="0.5" d="M240.079 136.513C240.079 135.581 240.183 133.455 240.26 131.395C209.648 111.869 191.712 122.166 168.784 128.742C143.932 135.866 113.436 123.81 85.488 121.07C69.8152 119.536 53.6273 124.358 42.4317 128.923C41.5603 129.542 38.0093 130.786 37.1818 132.162C36.3543 133.537 37.9107 144.497 37.9107 144.497C37.9107 144.497 36.168 145.659 36.8914 146.826C37.6147 147.994 42.5522 150.164 46.6184 150.887C49.1526 151.331 51.7179 151.575 54.2904 151.616H54.4877C54.0492 149.468 53.838 147.281 53.8575 145.089C53.8133 142.412 54.3026 139.752 55.2966 137.266C56.2907 134.78 57.7697 132.516 59.6475 130.607C61.5252 128.698 63.7642 127.182 66.2338 126.147C68.7034 125.112 71.3544 124.579 74.0321 124.579C76.7098 124.579 79.3607 125.112 81.8304 126.147C84.3 127.182 86.5389 128.698 88.4167 130.607C90.2945 132.516 91.7735 134.78 92.7675 137.266C93.7616 139.752 94.2508 142.412 94.2067 145.089C94.2067 147.363 94.1355 149.385 94.0039 151.199H95.6479L102.471 150.766L184.402 149.901C184.26 148.437 184.183 146.843 184.183 145.106C184.138 142.333 184.645 139.579 185.675 137.004C186.705 134.429 188.238 132.085 190.183 130.108C192.128 128.131 194.447 126.562 197.004 125.49C199.562 124.418 202.308 123.866 205.081 123.866C207.854 123.866 210.599 124.418 213.157 125.49C215.715 126.562 218.034 128.131 219.979 130.108C221.924 132.085 223.456 134.429 224.486 137.004C225.516 139.579 226.024 142.333 225.979 145.106C225.978 146.116 225.905 147.125 225.76 148.125L233.234 146.558L239.334 140.026C239.804 138.913 240.057 137.721 240.079 136.513Z" fill="white"/>
<path opacity="0.2" d="M143.949 156.768C149.947 156.768 154.81 146.142 154.81 133.034C154.81 119.926 149.947 109.3 143.949 109.3C137.95 109.3 133.087 119.926 133.087 133.034C133.087 146.142 137.95 156.768 143.949 156.768Z" fill="black"/>
</g>
<path d="M240.227 126.644C239.936 125.483 234.276 122.436 234.276 122.436C234.276 122.436 229.048 114.764 226.149 111.985C224.566 110.454 222.868 109.047 221.069 107.777C221.069 107.777 227.31 107.196 227.31 106.182C227.31 105.168 225.858 105.02 224.839 104.73C223.82 104.439 216.422 104.587 216.422 104.587H174.478L133.115 106.905L120.346 107.777C120.346 107.777 119.765 106.182 118.604 106.182C117.63 106.148 116.66 106.051 115.699 105.892C115.699 105.892 115.118 104.587 117.151 102.697C119.185 100.806 129.635 94.4275 129.635 94.4275C129.558 93.4491 129.148 92.5266 128.473 91.8135C127.761 91.0233 126.862 90.4241 125.859 90.0709L121.218 89.3475C120.489 89.3475 109.162 95.4413 93.0614 107.925C93.0614 107.925 71.2893 109.667 60.5485 113.295C49.8077 116.923 45.0182 120.841 42.8427 126.354C42.8427 126.354 43.1331 128.245 42.5522 128.825C41.9713 129.406 38.0531 130.711 37.1818 132.163C36.3105 133.615 37.9107 144.498 37.9107 144.498C37.9107 144.498 36.168 145.66 36.8914 146.827C37.6147 147.994 42.5522 150.165 46.6184 150.888C49.1526 151.332 51.7179 151.576 54.2904 151.617H54.4877C54.0492 149.469 53.838 147.282 53.8575 145.09C53.8133 142.413 54.3026 139.753 55.2966 137.267C56.2907 134.781 57.7697 132.517 59.6475 130.608C61.5252 128.699 63.7642 127.183 66.2338 126.148C68.7034 125.113 71.3544 124.58 74.0321 124.58C76.7098 124.58 79.3607 125.113 81.8304 126.148C84.3 127.183 86.5389 128.699 88.4167 130.608C90.2945 132.517 91.7735 134.781 92.7675 137.267C93.7616 139.753 94.2508 142.413 94.2067 145.09C94.2067 147.364 94.1355 149.386 94.0039 151.2H95.6479L102.471 150.767L184.402 149.902C184.26 148.438 184.183 146.844 184.183 145.107C184.138 142.334 184.645 139.58 185.675 137.005C186.705 134.43 188.238 132.086 190.183 130.109C192.128 128.132 194.447 126.563 197.004 125.491C199.562 124.419 202.308 123.867 205.081 123.867C207.854 123.867 210.6 124.419 213.157 125.491C215.715 126.563 218.034 128.132 219.979 130.109C221.924 132.086 223.456 134.43 224.486 137.005C225.516 139.58 226.024 142.334 225.979 145.107C225.978 146.117 225.905 147.126 225.76 148.126L233.234 146.559L239.334 140.027C239.793 138.921 240.039 137.738 240.057 136.541C240.079 134.629 240.517 127.806 240.227 126.644Z" stroke="black" stroke-width="0.548" stroke-linecap="round" stroke-linejoin="round"/>
<path d="M124.264 93.8466C124.264 93.8466 110.186 101.973 103.221 111.553L217.441 105.459L210.147 104.587H174.478L133.115 106.905L120.346 107.777C120.346 107.777 119.765 106.182 118.604 106.182C117.63 106.148 116.66 106.051 115.699 105.892C115.699 105.892 115.118 104.587 117.151 102.697C119.184 100.806 129.635 94.4275 129.635 94.4275C129.557 93.4491 129.147 92.5266 128.473 91.8135C127.761 91.0233 126.862 90.4241 125.859 90.0709L121.218 89.3475C121.218 89.3475 124.264 91.2327 124.264 93.8466Z" fill="white" stroke="black" stroke-width="0.548" stroke-linecap="round" stroke-linejoin="round"/>
<path d="M152.092 97.3268C151.463 97.262 150.833 97.4355 150.325 97.8129C149.818 98.1903 149.471 98.7443 149.352 99.3653C149.12 100.462 148.986 101.577 148.952 102.697C148.952 104.889 152.147 106.473 152.147 106.473L150.547 108.796L157.227 108.506C157.232 107.913 157.133 107.323 156.936 106.763L156.646 106.182C156.646 106.182 157.517 105.169 156.065 102.116C154.613 99.0639 153.325 97.4747 152.147 97.3268H152.092Z" fill="black" stroke="black" stroke-width="0.548" stroke-linecap="round" stroke-linejoin="round"/>
<path d="M179.558 104.73L181.75 107.054L211.506 106.183L215.424 105.892C215.424 105.892 217.019 105.892 216.438 104.588C216.245 104.197 215.959 103.86 215.604 103.606C215.249 103.353 214.837 103.191 214.405 103.136C214.405 103.136 213.824 101.393 213.101 100.812C212.624 100.372 212.006 100.116 211.358 100.089C210.925 100.089 210.196 97.7652 209.166 97.7652C208.136 97.7652 204.957 98.927 204.519 99.2174C204.081 99.5079 201.182 96.8939 199.154 97.3268C197.127 97.7598 185.657 102.555 184.205 103.136C182.752 103.717 179.558 104.73 179.558 104.73Z" fill="black" stroke="black" stroke-width="0.548" stroke-linecap="round" stroke-linejoin="round"/>
<path d="M193.203 103.716C193.203 103.716 192.912 96.7508 192.041 96.0439C191.17 95.337 189.575 94.5917 188.994 95.0301L188.413 95.463C188.413 95.463 187.685 94.5917 186.38 95.3205C185.076 96.0494 184.495 99.3812 184.495 100.833C184.502 101.269 184.595 101.698 184.769 102.097C184.943 102.496 185.195 102.856 185.509 103.157L183.043 104.609L184.347 106.637L193.203 103.716Z" fill="black" stroke="black" stroke-width="0.548" stroke-linecap="round" stroke-linejoin="round"/>
<path d="M120.346 107.777C120.346 107.777 119.765 106.182 118.604 106.182C117.63 106.148 116.66 106.051 115.699 105.892C115.699 105.892 115.118 104.587 117.151 102.697C119.184 100.806 129.635 94.4275 129.635 94.4275C129.557 93.4491 129.147 92.5266 128.473 91.8135C127.761 91.0233 126.862 90.4241 125.859 90.0709L121.218 89.3475C121.218 89.3475 124.264 91.2327 124.264 93.8466C124.264 93.8466 110.186 101.973 103.221 111.553L121.913 110.555L120.346 107.777Z" fill="black" stroke="black" stroke-width="0.548" stroke-linecap="round" stroke-linejoin="round"/>
<path d="M109.896 104.44C109.896 104.44 112.088 103.859 113.376 105.021C114.664 106.183 115.119 108.939 114.395 109.405C113.672 109.871 110.477 109.838 110.477 109.838L112.072 111.29L108.444 111.433L108.296 109.838C108.296 109.838 106.268 108.534 106.559 106.934C106.849 105.333 109.896 104.44 109.896 104.44Z" fill="white" stroke="black" stroke-width="0.548" stroke-linecap="round" stroke-linejoin="round"/>
<path d="M229.338 115.904C229.338 115.904 221.359 109.958 206.99 111.695C192.622 113.432 181.3 118.819 176.659 141.884" stroke="black" stroke-width="0.548" stroke-linecap="round" stroke-linejoin="round"/>
<path d="M178.253 145.513C178.253 145.513 179.558 144.642 179.125 143.771C178.804 143.162 178.324 142.652 177.737 142.295C177.149 141.938 176.475 141.747 175.787 141.743C174.045 141.743 101.621 144.209 101.621 144.209L102.059 147.399L178.253 145.513Z" stroke="black" stroke-width="0.548" stroke-linecap="round" stroke-linejoin="round"/>
<path d="M101.621 144.209C101.621 144.209 101.621 135.644 98.7223 130.131C95.8234 124.618 91.5983 119.538 81.5918 115.883C71.5854 112.227 53.874 118.206 53.874 118.206C49.63 120.077 46.0423 123.175 43.5716 127.1L42.9907 128.114" stroke="black" stroke-width="0.548" stroke-linecap="round" stroke-linejoin="round"/>
<path d="M51.0735 126.611C48.1034 129.351 44.9031 130.732 43.9495 129.675C42.996 128.617 44.5797 125.526 47.5499 122.775C50.5201 120.024 53.7149 118.654 54.6739 119.712C55.6329 120.77 54.0382 123.86 51.0735 126.611Z" stroke="black" stroke-width="0.548" stroke-linecap="round" stroke-linejoin="round"/>
<path d="M37.1763 138.405C37.4667 141.479 37.9106 144.498 37.9106 144.498C37.9106 144.498 42.1192 145.803 43.5714 145.66C45.0236 145.518 45.599 145.079 46.1799 142.613C46.7608 140.147 45.4566 139.271 45.4566 139.271L37.1818 138.399L37.1763 138.405Z" fill="black" stroke="black" stroke-width="0.548" stroke-linecap="round" stroke-linejoin="round"/>
<path d="M159.167 119.679H157.714C157.119 119.678 156.548 119.441 156.127 119.02C155.706 118.599 155.469 118.028 155.468 117.433C155.468 116.836 155.704 116.264 156.125 115.842C156.546 115.42 157.118 115.182 157.714 115.18H159.167C159.462 115.18 159.755 115.239 160.028 115.352C160.302 115.465 160.55 115.631 160.759 115.84C160.968 116.049 161.134 116.298 161.247 116.571C161.361 116.844 161.419 117.137 161.419 117.433C161.417 118.029 161.179 118.601 160.757 119.022C160.335 119.443 159.763 119.679 159.167 119.679Z" fill="white" stroke="black" stroke-width="0.548" stroke-linecap="round" stroke-linejoin="round"/>
<path d="M155.32 118.392C155.045 118.392 154.782 118.283 154.587 118.088C154.393 117.894 154.284 117.631 154.284 117.356C154.284 117.081 154.393 116.818 154.587 116.624C154.782 116.429 155.045 116.32 155.32 116.32L163.156 116.178C163.429 116.176 163.692 116.281 163.888 116.471C164.085 116.66 164.2 116.919 164.208 117.192C164.211 117.328 164.187 117.463 164.138 117.59C164.088 117.716 164.015 117.832 163.92 117.93C163.826 118.029 163.714 118.107 163.589 118.162C163.465 118.217 163.33 118.246 163.194 118.249L155.358 118.392H155.32Z" fill="white" stroke="black" stroke-width="0.548" stroke-linecap="round" stroke-linejoin="round"/>
<path d="M208.081 162.579C217.208 161.104 223.411 152.51 221.936 143.383C220.461 134.256 211.867 128.053 202.74 129.528C193.613 131.003 187.411 139.598 188.886 148.724C190.361 157.851 198.955 164.054 208.081 162.579Z" fill="black" stroke="black" stroke-width="0.54956" stroke-linecap="round" stroke-linejoin="round"/>
<path d="M206.955 156.389C213.204 155.368 217.442 149.475 216.421 143.226C215.4 136.978 209.506 132.74 203.258 133.761C197.009 134.782 192.771 140.675 193.792 146.924C194.813 153.172 200.707 157.41 206.955 156.389Z" fill="white" stroke="black" stroke-width="0.548" stroke-linecap="round" stroke-linejoin="round"/>
<path d="M209.924 149.904C212.588 147.24 212.588 142.92 209.924 140.256C207.259 137.591 202.939 137.591 200.275 140.256C197.611 142.92 197.611 147.24 200.275 149.904C202.939 152.569 207.259 152.569 209.924 149.904Z" stroke="black" stroke-width="0.548" stroke-linecap="round" stroke-linejoin="round"/>
<path d="M208.152 145.08C208.153 144.476 207.975 143.886 207.64 143.383C207.306 142.88 206.829 142.488 206.272 142.256C205.714 142.025 205.1 141.963 204.508 142.08C203.915 142.198 203.371 142.488 202.943 142.915C202.516 143.341 202.225 143.885 202.106 144.477C201.988 145.07 202.048 145.684 202.279 146.242C202.51 146.8 202.901 147.277 203.403 147.612C203.905 147.948 204.496 148.127 205.1 148.127C205.5 148.128 205.897 148.05 206.267 147.897C206.638 147.744 206.974 147.52 207.258 147.237C207.541 146.954 207.766 146.618 207.92 146.248C208.073 145.878 208.152 145.481 208.152 145.08Z" stroke="black" stroke-width="0.548" stroke-linecap="round" stroke-linejoin="round"/>
<path d="M76.6171 162.351C85.7437 160.876 91.9465 152.282 90.4715 143.155C88.9965 134.029 80.4022 127.826 71.2756 129.301C62.149 130.776 55.9462 139.37 57.4212 148.497C58.8962 157.623 67.4905 163.826 76.6171 162.351Z" fill="black" stroke="black" stroke-width="0.54956" stroke-linecap="round" stroke-linejoin="round"/>
<path d="M76.6878 156.24C82.8469 154.773 86.6504 148.59 85.1831 142.431C83.7158 136.272 77.5333 132.469 71.3742 133.936C65.2151 135.403 61.4117 141.586 62.879 147.745C64.3463 153.904 70.5287 157.707 76.6878 156.24Z" fill="white" stroke="black" stroke-width="0.548" stroke-linecap="round" stroke-linejoin="round"/>
<path d="M75.6396 151.709C79.3056 150.839 81.5717 147.161 80.7011 143.495C79.8304 139.829 76.1526 137.563 72.4866 138.433C68.8205 139.304 66.5545 142.982 67.4251 146.648C68.2958 150.314 71.9735 152.58 75.6396 151.709Z" stroke="black" stroke-width="0.548" stroke-linecap="round" stroke-linejoin="round"/>
<path d="M77.0928 145.079C77.0928 144.476 76.9141 143.887 76.5793 143.386C76.2445 142.885 75.7686 142.495 75.2119 142.264C74.6552 142.034 74.0425 141.973 73.4515 142.091C72.8604 142.208 72.3175 142.499 71.8914 142.925C71.4653 143.351 71.1751 143.894 71.0576 144.485C70.94 145.076 71.0003 145.688 71.231 146.245C71.4616 146.802 71.8521 147.278 72.3532 147.613C72.8542 147.947 73.4433 148.126 74.0459 148.126C74.854 148.126 75.629 147.805 76.2004 147.234C76.7718 146.662 77.0928 145.887 77.0928 145.079Z" stroke="black" stroke-width="0.548" stroke-linecap="round" stroke-linejoin="round"/>
<path d="M164.8 108.468C166.206 112.35 166.745 116.493 166.378 120.606C165.83 127.686 161.654 142.186 161.654 142.186C162.003 142.814 162.116 143.546 161.972 144.249C161.828 144.953 161.438 145.581 160.871 146.022" stroke="black" stroke-width="0.548" stroke-linecap="round" stroke-linejoin="round"/>
<path d="M103.221 111.553C102.422 112.479 101.72 113.485 101.128 114.556C100.421 115.975 100.186 133.264 100.186 133.264" stroke="black" stroke-width="0.548" stroke-linecap="round" stroke-linejoin="round"/>
<path d="M96.996 109.7C98.092 109.223 99.736 106.96 105.523 102.121C111.31 97.2825 120.56 92.0546 120.56 92.0546L118.801 90.4873C114.559 92.7834 105.167 98.5539 93.0449 107.925L91.1653 109.936C91.1653 109.936 95.9 110.171 96.996 109.7Z" fill="black" stroke="black" stroke-width="0.548" stroke-linecap="round" stroke-linejoin="round"/>
<path d="M93.0066 107.92C92.623 107.947 89.883 108.177 86.0305 108.61C86.0305 109.635 91.1817 109.925 91.1817 109.925L93.0066 107.92Z" stroke="black" stroke-width="0.548" stroke-linecap="round" stroke-linejoin="round"/>
<path d="M233.662 122.803C233.662 122.803 232.67 119.224 228.494 116.046C224.318 112.867 220.449 113.854 220.055 115.75C219.66 117.646 222.537 120.912 225.814 122.6C229.091 124.288 231.804 123.499 233.662 122.803Z" fill="black" stroke="black" stroke-width="0.548" stroke-linecap="round" stroke-linejoin="round"/>
<path d="M223.995 128.245C223.995 128.245 228.138 132.388 228.927 138.339C228.927 138.339 228.67 139.633 230.483 139.633C233.396 139.632 236.284 139.099 239.005 138.06" stroke="black" stroke-width="0.548" stroke-linecap="round" stroke-linejoin="round"/>
<path d="M240.227 126.644C240.227 126.644 240.041 127.192 236.161 129.023C233.802 130.116 231.251 130.733 228.653 130.837" fill="#1C819D"/>
<path d="M37.1816 132.164C37.1816 132.164 38.9517 130.059 44.903 132.903C47.1693 134.017 49.5611 134.854 52.027 135.397" stroke="black" stroke-width="0.548" stroke-linecap="round" stroke-linejoin="round"/>
<path d="M38.4368 146.361C42.1898 147.074 46.0042 147.414 49.8242 147.375C49.8242 147.375 48.7885 136.503 57.3263 128.195" stroke="black" stroke-width="0.548" stroke-linecap="round" stroke-linejoin="round"/>
<path d="M200.535 20.882C197.055 18.9804 195.472 20.5641 194.211 18.9804C192.951 17.3967 197.686 13.2867 188.183 9.1767C188.183 9.1767 187.548 0.321019 174.582 0.00317884C161.616 -0.314661 165.091 8.85886 161.611 11.0728C158.131 13.2867 157.199 9.82882 153.72 12.0208C150.24 14.2128 151.824 18.6626 148.974 19.2928C146.124 19.923 142.332 16.4487 138.852 18.6626C135.373 20.8765 135.373 22.7726 133.789 22.7726C132.205 22.7726 129.049 21.5067 127.147 22.7726C125.246 24.0385 123.037 25.6222 123.037 25.6222H203.045C203.045 25.6222 204.015 22.7781 200.535 20.882Z" fill="#1C819D"/>
<path opacity="0.5" d="M200.535 20.882C197.055 18.9804 195.472 20.5641 194.211 18.9804C192.951 17.3967 197.686 13.2867 188.183 9.1767C188.183 9.1767 187.548 0.321019 174.582 0.00317884C161.616 -0.314661 165.091 8.85886 161.611 11.0728C158.131 13.2867 157.199 9.82882 153.72 12.0208C150.24 14.2128 151.824 18.6626 148.974 19.2928C146.124 19.923 142.332 16.4487 138.852 18.6626C135.373 20.8765 135.373 22.7726 133.789 22.7726C132.205 22.7726 129.049 21.5067 127.147 22.7726C125.246 24.0385 123.037 25.6222 123.037 25.6222H203.045C203.045 25.6222 204.015 22.7781 200.535 20.882Z" fill="white"/>
<path d="M118.028 58.1184C115.584 56.7868 114.472 57.8993 113.584 56.7868C112.696 55.6744 116.028 52.7864 109.359 49.8984C109.359 49.8984 108.915 43.6787 99.8074 43.454C90.6996 43.2293 93.1601 49.6793 90.6996 51.2301C88.2391 52.7809 87.587 50.3423 85.1429 51.8987C82.6988 53.455 83.8113 56.5621 81.8111 57.0115C79.8109 57.4609 77.1476 55.0113 74.6871 56.5621C72.2265 58.113 72.243 59.4501 71.1305 59.4501C70.0181 59.4501 67.7987 58.5623 66.4671 59.4501C65.1354 60.3379 63.5791 61.4503 63.5791 61.4503H119.804C119.804 61.4503 120.467 59.4501 118.028 58.1184Z" fill="white"/>
<path opacity="0.5" d="M118.028 58.1184C115.584 56.7868 114.472 57.8993 113.584 56.7868C112.696 55.6744 116.028 52.7864 109.359 49.8984C109.359 49.8984 108.915 43.6787 99.8074 43.454C90.6996 43.2293 93.1601 49.6793 90.6996 51.2301C88.2391 52.7809 87.587 50.3423 85.1429 51.8987C82.6988 53.455 83.8113 56.5621 81.8111 57.0115C79.8109 57.4609 77.1476 55.0113 74.6871 56.5621C72.2265 58.113 72.243 59.4501 71.1305 59.4501C70.0181 59.4501 67.7987 58.5623 66.4671 59.4501C65.1354 60.3379 63.5791 61.4503 63.5791 61.4503H119.804C119.804 61.4503 120.467 59.4501 118.028 58.1184Z" fill="white"/>
<path opacity="0.5" d="M155.484 166.008C155.484 167.839 149.719 169.329 142.612 169.329C135.504 169.329 129.739 167.839 129.739 166.008C129.739 164.178 135.504 162.72 142.612 162.72C149.719 162.72 155.484 164.184 155.484 166.008Z" fill="#1C819D"/>
<path d="M153.155 109.712H143.543L135.4 110.09C135.4 110.09 135.454 110.912 135.542 112.282L135.712 112.419L134.583 111.904C134.583 111.904 133.098 134.438 133.635 135.512C134.172 136.586 139.844 161.504 139.844 161.504C139.844 161.504 138.107 164.583 137.438 165.652C136.77 166.721 138.638 167.121 139.707 166.721C140.776 166.32 142.918 162.978 142.918 162.172C142.918 161.367 142.135 135.709 142.135 135.709L143.855 118.42H144.014C144.014 118.42 144.951 127.347 144.053 149.815C143.888 153.98 144.891 159.849 145.012 161.997C145.242 162.947 145.303 163.93 145.192 164.901C144.968 166.156 145.877 168.315 147.467 168.655C149.056 168.995 149.286 167.29 148.831 165.471C148.376 163.652 147.949 161.997 147.949 161.997C148.809 157.613 150.174 145.201 151.237 139.414C154.454 122.053 153.155 109.712 153.155 109.712Z" fill="black" stroke="black" stroke-width="0.548" stroke-linecap="round" stroke-linejoin="round"/>
<path d="M154.536 83.7316L146.667 80.5204L142.211 80.4053L133.279 83.9563L135.411 104.435L134.583 111.882C136.388 112.181 138.147 112.712 139.817 113.461C142.77 114.743 148.163 115.899 150.229 115.001C151.384 114.514 152.463 113.864 153.434 113.072L152.886 104.824L154.536 83.7316Z" fill="#1C819D" stroke="black" stroke-width="0.548" stroke-linecap="round" stroke-linejoin="round"/>
<path d="M133.279 83.9513C132.63 84.0087 132.006 84.2259 131.462 84.5835C130.918 84.9412 130.471 85.4281 130.161 86.0008C129.114 87.9627 128.588 97.2622 128.983 98.3089C129.377 99.3556 130.292 100.402 132.123 98.9665C133.19 98.1477 134.089 97.1298 134.77 95.9689L133.279 83.9513Z" fill="white" stroke="black" stroke-width="0.548" stroke-linecap="round" stroke-linejoin="round"/>
<path d="M154.536 83.7317C154.536 83.7317 157.276 83.2495 157.774 85.3428C158.273 87.4362 160.514 93.5957 159.736 96.0836C158.958 98.5715 155.939 98.44 153.845 97.1303C151.752 95.8206 154.536 83.7317 154.536 83.7317Z" fill="white" stroke="black" stroke-width="0.548" stroke-linecap="round" stroke-linejoin="round"/>
<path d="M143.121 84.0335L140.633 86.3954C140.633 86.3954 139.197 82.3347 139.197 81.6771C139.197 81.0195 140.896 79.0577 140.896 79.0577L147.313 78.9316L149.67 81.8086L147.708 86.2639L144.968 84.165L143.121 84.0335Z" fill="white" stroke="black" stroke-width="0.548" stroke-linecap="round" stroke-linejoin="round"/>
<path d="M147.637 82.2131L144.338 86.8601L141.104 82.2131V74.5137H147.637V82.2131Z" fill="white" stroke="black" stroke-width="0.548" stroke-linecap="round" stroke-linejoin="round"/>
<path d="M140.397 72.4698C140.397 72.4698 139.186 72.152 139.301 73.0178C139.416 73.8836 139.789 75.44 140.397 75.8071L141.006 76.1688L140.397 72.4698Z" fill="white" stroke="black" stroke-width="0.548" stroke-linecap="round" stroke-linejoin="round"/>
<path d="M148.508 72.4698C148.508 72.4698 149.719 72.152 149.604 73.0178C149.489 73.8836 149.116 75.44 148.508 75.8071L147.9 76.1688L148.508 72.4698Z" fill="white" stroke="black" stroke-width="0.548" stroke-linecap="round" stroke-linejoin="round"/>
<path d="M149.056 71.0613C149.055 70.3969 148.911 69.7406 148.632 69.1374C148.354 68.5341 147.948 67.9983 147.443 67.5667C146.938 67.1351 146.346 66.8179 145.707 66.6369C145.067 66.456 144.397 66.4155 143.74 66.5184C143.084 66.6212 142.457 66.865 141.904 67.2328C141.351 67.6006 140.884 68.0838 140.535 68.6493C140.186 69.2147 139.964 69.8489 139.884 70.5084C139.803 71.1678 139.866 71.8369 140.069 72.4696L141.242 77.9825L143.379 80.9856H145.445L147.522 78.3661L148.793 72.6012C148.968 72.1066 149.056 71.5858 149.056 71.0613Z" fill="white" stroke="black" stroke-width="0.548" stroke-linecap="round" stroke-linejoin="round"/>
<path d="M148.086 70.6997C147.828 71.2763 147.665 71.8906 147.604 72.5191C147.705 73.2736 147.907 74.011 148.207 74.7111C148.207 74.7111 149.664 71.6807 149.538 70.5901C149.412 69.4996 147.96 70.3381 148.086 70.6997Z" fill="black" stroke="black" stroke-width="0.548" stroke-linecap="round" stroke-linejoin="round"/>
<path d="M140.458 74.4538C140.458 74.4538 140.458 74.2675 140.485 73.9825C140.557 73.2043 140.737 71.6919 141.181 71.4288C141.79 71.0617 141.729 69.1546 141.729 69.1546C141.729 69.1546 140.885 70.1081 143.795 71.0781C146.705 72.0481 149.062 71.6699 150.634 69.6095C152.207 67.549 150.76 66.0968 150.514 66.8256C150.267 67.5545 149.79 68.5189 148.941 67.7956C148.092 67.0722 146.749 65.6036 144.338 65.6036C143.612 65.6293 142.905 65.8453 142.288 66.23C141.672 66.6147 141.167 67.1546 140.825 67.7956C140.437 67.9847 140.108 68.2759 139.874 68.638C139.639 69.0001 139.508 69.4193 139.493 69.8506C139.488 71.3083 140.458 74.4538 140.458 74.4538Z" fill="black" stroke="black" stroke-width="0.548" stroke-linecap="round" stroke-linejoin="round"/>
<path d="M148.979 70.6236C147.264 70.6894 145.801 69.5276 144.316 68.5193C142.831 67.511 141.811 68.5193 141.811 68.5193C141.928 67.9647 142.225 67.4641 142.654 67.0946C143.084 66.7252 143.624 66.5075 144.19 66.4752C146.212 66.3437 146.875 69.1221 148.754 69.3687" stroke="white" stroke-width="0.274" stroke-linecap="round" stroke-linejoin="round"/>
<path d="M140.091 74.3551L139.888 72.3768" stroke="black" stroke-width="0.548" stroke-linecap="round" stroke-linejoin="round"/>
<path d="M148.639 74.3553L149.1 72.4756" stroke="black" stroke-width="0.548" stroke-linecap="round" stroke-linejoin="round"/>
<path d="M144.277 73.7519H140.441L140.847 75.0123C140.884 75.1296 140.956 75.2324 141.055 75.3061C141.153 75.3799 141.272 75.4209 141.395 75.4233H143.368C143.495 75.4176 143.618 75.3707 143.716 75.2897C143.815 75.2087 143.885 75.0979 143.916 74.9739L144.277 73.7519Z" fill="black"/>
<path d="M148.508 73.7519H144.672L145.077 75.0123C145.116 75.1287 145.189 75.2306 145.287 75.3042C145.385 75.3777 145.503 75.4193 145.625 75.4233H147.593C147.725 75.4235 147.854 75.3794 147.958 75.2979C148.062 75.2165 148.136 75.1024 148.168 74.9739L148.508 73.7519Z" fill="black"/>
<path d="M145.472 74.1966H143.609C143.574 74.1973 143.54 74.191 143.507 74.1781C143.475 74.1651 143.446 74.1458 143.421 74.1212C143.397 74.0966 143.377 74.0673 143.364 74.0351C143.351 74.0028 143.345 73.9683 143.346 73.9336C143.345 73.8986 143.351 73.8638 143.364 73.8312C143.377 73.7987 143.396 73.769 143.421 73.744C143.445 73.719 143.475 73.6991 143.507 73.6856C143.539 73.672 143.574 73.665 143.609 73.665H145.472C145.543 73.665 145.612 73.6933 145.662 73.7437C145.712 73.794 145.741 73.8623 145.741 73.9336C145.741 73.9686 145.734 74.0032 145.72 74.0355C145.706 74.0678 145.687 74.097 145.662 74.1215C145.637 74.146 145.607 74.1653 145.574 74.1782C145.542 74.1911 145.507 74.1973 145.472 74.1966Z" fill="black"/>
<path d="M159.621 93.9898C159.621 93.9898 160.411 96.8668 158.443 97.9135C157.703 98.3081 154.257 97.656 150.196 96.6038C146.135 95.5516 143.91 94.768 143.91 94.768L132.517 94.5049C132.517 94.5049 131.471 92.4116 133.065 91.2169C134.66 90.0223 140.403 91.7376 140.403 91.7376L152.185 92.0006C154.076 91.2731 156.16 91.2266 158.082 91.8691" fill="white"/>
<path d="M159.621 93.9898C159.621 93.9898 160.411 96.8668 158.443 97.9135C157.703 98.3081 154.257 97.656 150.196 96.6038C146.135 95.5516 143.91 94.768 143.91 94.768L132.517 94.5049C132.517 94.5049 131.471 92.4116 133.065 91.2169C134.66 90.0223 140.403 91.7376 140.403 91.7376L152.185 92.0006C154.076 91.2731 156.16 91.2266 158.082 91.8691" stroke="black" stroke-width="0.548" stroke-linecap="round" stroke-linejoin="round"/>
<path d="M130.972 94.7677C130.972 94.7677 133.712 92.5428 135.816 91.7537C137.921 90.9646 149.566 90.707 149.566 90.707C149.566 90.707 152.854 91.7537 152.185 92.0168C151.517 92.2798 148.897 92.5648 147.735 93.0634C146.574 93.5621 139.746 98.3023 131.498 99.4805C129.69 99.7381 129.268 99.612 128.879 97.7817" fill="white"/>
<path d="M130.972 94.7677C130.972 94.7677 133.712 92.5428 135.816 91.7537C137.921 90.9646 149.566 90.707 149.566 90.707C149.566 90.707 152.854 91.7537 152.185 92.0168C151.517 92.2798 148.897 92.5648 147.735 93.0634C146.574 93.5621 139.746 98.3023 131.498 99.4805C129.69 99.7381 129.268 99.612 128.879 97.7817" stroke="black" stroke-width="0.548" stroke-linecap="round" stroke-linejoin="round"/>
<path d="M147.658 90.8563L147.878 92.7359H148.65L148.76 90.7412L147.658 90.8563Z" fill="black" stroke="black" stroke-width="0.548" stroke-linecap="round" stroke-linejoin="round"/>
<path d="M138.841 114.249C140.657 115.193 142.196 116.592 143.308 118.31" stroke="white" stroke-width="0.411" stroke-linecap="round" stroke-linejoin="round"/>
<path d="M136.2 114.655C136.2 114.655 138.529 114.546 141.482 116.48" stroke="white" stroke-width="0.411" stroke-linecap="round" stroke-linejoin="round"/>
</g>
<defs>
<clipPath id="clip0_120_20435">
<rect width="274" height="170" fill="white"/>
</clipPath>
</defs>
</svg>
