<svg width="24" height="24" viewBox="0 0 24 24" fill="none" xmlns="http://www.w3.org/2000/svg">
<g id="2667447001536925043 1" clip-path="url(#clip0_120_12112)">
<path id="Vector" d="M12 0C5.37258 0 0 5.37258 0 12C0 14.5082 0.769969 16.8363 2.0858 18.7619L3.5 20.5L5.23819 21.9142C7.16372 23.23 9.49177 24 12 24C18.6274 24 24 18.6274 24 12C24 5.37258 18.6274 0 12 0Z" fill="white"/>
<path id="Vector_2" d="M17.613 15.5885C16.7071 14.6826 15.7368 13.92 15.7368 13.92L14.3232 15.3337L8.66661 9.67709L10.0803 8.26344C10.0803 8.26344 9.31775 7.29312 8.41184 6.38722C7.50594 5.48136 6.53567 4.71875 6.53567 4.71875C6.53567 4.71875 4.84175 6.27706 4.72784 7.51297C4.5754 9.16733 6.32656 12.1751 9.07587 14.9244C11.8252 17.6737 14.8329 19.4249 16.4873 19.2724C17.7232 19.1585 19.2815 17.4646 19.2815 17.4646C19.2815 17.4646 18.5189 16.4944 17.613 15.5885Z" fill="black"/>
</g>
<defs>
<clipPath id="clip0_120_12112">
<rect width="24" height="24" fill="white"/>
</clipPath>
</defs>
</svg>
