<svg width="24" height="24" viewBox="0 0 24 24" fill="none" xmlns="http://www.w3.org/2000/svg">
<g id="road-svgrepo-com 1" clip-path="url(#clip0_127_742)">
<g id="&#233;&#161;&#181;&#233;&#157;&#162;-1">
<g id="Map">
<g id="road_line">
<path id="&#229;&#189;&#162;&#231;&#138;&#182;" d="M8.24229 3.03009C8.77808 3.16404 9.10384 3.70697 8.96989 4.24277L4.96989 20.2427C4.83595 20.7785 4.29301 21.1043 3.75722 20.9703C3.22142 20.8364 2.89566 20.2935 3.02961 19.7577L7.02961 3.7577C7.16356 3.2219 7.70649 2.89614 8.24229 3.03009ZM16.9699 3.7577L20.9699 19.7577C21.1039 20.2935 20.7781 20.8364 20.2423 20.9703C19.7065 21.1043 19.1636 20.7785 19.0297 20.2427L15.0297 4.24277C14.8957 3.70697 15.2215 3.16404 15.7573 3.03009C16.2931 2.89614 16.836 3.2219 16.9699 3.7577ZM11.9998 17.0002C12.5126 17.0002 12.9353 17.3863 12.993 17.8836L12.9998 18.0002V20.0002C12.9998 20.5525 12.5521 21.0002 11.9998 21.0002C11.4869 21.0002 11.0642 20.6142 11.0065 20.1169L10.9998 20.0002V18.0002C10.9998 17.4479 11.4475 17.0002 11.9998 17.0002ZM11.9998 10.0002C12.5521 10.0002 12.9998 10.4479 12.9998 11.0002V13.0002C12.9998 13.5525 12.5521 14.0002 11.9998 14.0002C11.4475 14.0002 10.9998 13.5525 10.9998 13.0002V11.0002C10.9998 10.4479 11.4475 10.0002 11.9998 10.0002ZM11.9998 3.00023C12.5126 3.00023 12.9353 3.38628 12.993 3.88361L12.9998 4.00023V6.00023C12.9998 6.55252 12.5521 7.00023 11.9998 7.00023C11.4869 7.00023 11.0642 6.6142 11.0065 6.11686L10.9998 6.00023V4.00023C10.9998 3.44795 11.4475 3.00023 11.9998 3.00023Z" fill="#1C819D"/>
</g>
</g>
</g>
</g>
<defs>
<clipPath id="clip0_127_742">
<rect width="24" height="24" fill="white"/>
</clipPath>
</defs>
</svg>
