<svg width="24" height="24" viewBox="0 0 24 24" fill="none" xmlns="http://www.w3.org/2000/svg">
<g id="share-2">
<path id="Vector" d="M18.0001 7.99972C19.657 7.99972 21.0002 6.65652 21.0002 4.99961C21.0002 3.3427 19.657 1.99951 18.0001 1.99951C16.3432 1.99951 15 3.3427 15 4.99961C15 6.65652 16.3432 7.99972 18.0001 7.99972Z" stroke="#90A3C4" stroke-width="2" stroke-linecap="round" stroke-linejoin="round"/>
<path id="Vector_2" d="M5.99961 15.0002C7.65652 15.0002 8.99972 13.657 8.99972 12.0001C8.99972 10.3432 7.65652 9 5.99961 9C4.3427 9 2.99951 10.3432 2.99951 12.0001C2.99951 13.657 4.3427 15.0002 5.99961 15.0002Z" stroke="#90A3C4" stroke-width="2" stroke-linecap="round" stroke-linejoin="round"/>
<path id="Vector_3" d="M18.0001 22.0007C19.657 22.0007 21.0002 20.6575 21.0002 19.0006C21.0002 17.3437 19.657 16.0005 18.0001 16.0005C16.3432 16.0005 15 17.3437 15 19.0006C15 20.6575 16.3432 22.0007 18.0001 22.0007Z" stroke="#90A3C4" stroke-width="2" stroke-linecap="round" stroke-linejoin="round"/>
<path id="Vector_4" d="M8.58984 13.5103L15.4201 17.4904" stroke="#90A3C4" stroke-width="2" stroke-linecap="round" stroke-linejoin="round"/>
<path id="Vector_5" d="M15.4101 6.50977L8.58984 10.4899" stroke="#90A3C4" stroke-width="2" stroke-linecap="round" stroke-linejoin="round"/>
</g>
</svg>
