<svg width="24" height="24" viewBox="0 0 24 24" fill="none" xmlns="http://www.w3.org/2000/svg">
<g id="share-2">
<path id="Vector" d="M16.8 8.8C18.1255 8.8 19.2 7.72548 19.2 6.4C19.2 5.07452 18.1255 4 16.8 4C15.4745 4 14.4 5.07452 14.4 6.4C14.4 7.72548 15.4745 8.8 16.8 8.8Z" stroke="white" stroke-linecap="round" stroke-linejoin="round"/>
<path id="Vector_2" d="M7.20005 14.4001C8.52553 14.4001 9.60005 13.3256 9.60005 12.0001C9.60005 10.6746 8.52553 9.6001 7.20005 9.6001C5.87457 9.6001 4.80005 10.6746 4.80005 12.0001C4.80005 13.3256 5.87457 14.4001 7.20005 14.4001Z" stroke="white" stroke-linecap="round" stroke-linejoin="round"/>
<path id="Vector_3" d="M16.8 20.0002C18.1255 20.0002 19.2 18.9257 19.2 17.6002C19.2 16.2747 18.1255 15.2002 16.8 15.2002C15.4745 15.2002 14.4 16.2747 14.4 17.6002C14.4 18.9257 15.4745 20.0002 16.8 20.0002Z" stroke="white" stroke-linecap="round" stroke-linejoin="round"/>
<path id="Vector_4" d="M9.27197 13.208L14.736 16.392" stroke="white" stroke-linecap="round" stroke-linejoin="round"/>
<path id="Vector_5" d="M14.728 7.60791L9.27197 10.7919" stroke="white" stroke-linecap="round" stroke-linejoin="round"/>
</g>
</svg>
