<svg width="24" height="24" viewBox="0 0 24 24" fill="none" xmlns="http://www.w3.org/2000/svg">
<g id="sort-alt-svgrepo-com 1">
<path id="Vector" d="M3.58368 6.78999C3.20047 7.16255 3.19184 7.77523 3.5644 8.15844C3.93697 8.54165 4.54965 8.55029 4.93286 8.17772L3.58368 6.78999ZM8.90339 2.96776H9.87113C9.87113 2.57882 9.63823 2.22769 9.28001 2.07632C8.92174 1.92495 8.50767 2.00279 8.22881 2.27389L8.90339 2.96776ZM7.93566 21.0321C7.93566 21.5666 8.36893 21.9999 8.90339 21.9999C9.43784 21.9999 9.87113 21.5666 9.87113 21.0321H7.93566ZM20.4166 17.2098C20.7998 16.8373 20.8085 16.2247 20.4358 15.8415C20.0633 15.4582 19.4507 15.4496 19.0674 15.8222L20.4166 17.2098ZM15.0969 21.0321H14.1292C14.1292 21.421 14.3621 21.7723 14.7203 21.9236C15.0786 22.075 15.4926 21.9972 15.7715 21.7259L15.0969 21.0321ZM16.0646 2.96776C16.0646 2.4333 15.6313 2.00002 15.0969 2.00002C14.5625 2.00002 14.1292 2.4333 14.1292 2.96776H16.0646ZM4.93286 8.17772L9.57797 3.66162L8.22881 2.27389L3.58368 6.78999L4.93286 8.17772ZM7.93566 2.96776V21.0321H9.87113V2.96776H7.93566ZM19.0674 15.8222L14.4223 20.3383L15.7715 21.7259L20.4166 17.2098L19.0674 15.8222ZM16.0646 21.0321V2.96776H14.1292V21.0321H16.0646Z" fill="#90A3C4"/>
</g>
</svg>
