<svg width="24" height="24" viewBox="0 0 24 24" fill="none" xmlns="http://www.w3.org/2000/svg">
<g id="speed-svgrepo-com 1">
<path id="Vector" d="M17.0117 3.3446C15.5382 2.48956 13.8262 2 12 2C6.47715 2 2 6.47715 2 12C2 17.5229 6.47715 22 12 22C17.5229 22 22 17.5229 22 12C22 10.1863 21.5172 8.48545 20.673 7.01885" stroke="#1C819D" stroke-width="2" stroke-linecap="round" stroke-linejoin="round"/>
<path id="Vector_2" d="M16 8C16 8 14.2742 12.6074 13.4785 13.4032C12.6828 14.1989 11.3926 14.1989 10.5968 13.4032C9.80106 12.6074 9.80106 11.3172 10.5968 10.5215C11.3926 9.7257 16 8 16 8Z" stroke="#1C819D" stroke-width="2" stroke-linejoin="round"/>
</g>
</svg>
