<svg width="40" height="40" viewBox="0 0 40 40" fill="none" xmlns="http://www.w3.org/2000/svg">
<g clip-path="url(#clip0_120_12024)">
<path d="M28.9819 18.532C26.2007 16.8575 23.604 15.9393 20.6014 15.7169C17.5487 15.4909 14.0504 15.9729 9.50715 17.1016C9.11607 17.1987 8.52207 17.2689 7.94316 17.3373C7.47636 17.3924 7.01993 17.4463 6.76581 17.5002L6.63273 17.516C5.77003 17.554 5.01068 17.7658 4.40686 18.0967C3.9412 18.3518 3.57512 18.6738 3.33558 19.0349C3.11638 19.3654 3.00303 19.7311 3.01956 20.1065C3.03186 20.386 3.11527 20.6798 3.27921 20.9791L3.44082 21.274L3.34573 21.5938C3.24903 21.919 3.27996 22.127 3.41465 22.2394C3.6391 22.4266 4.05721 22.5416 4.62996 22.5986C4.60227 22.7691 4.58781 22.9441 4.58781 23.1225C4.58781 23.5134 4.65699 23.8882 4.78375 24.2353C3.74059 24.166 2.91432 23.9311 2.37538 23.4814C1.78539 22.9891 1.54115 22.3262 1.71348 21.4578C1.52265 21.0305 1.42227 20.6 1.40362 20.1762C1.37149 19.4463 1.58037 18.7527 1.98579 18.1414C2.37092 17.5608 2.93199 17.0582 3.62739 16.6772C4.4203 16.2428 5.39704 15.962 6.48998 15.9037C6.82685 15.8371 7.28505 15.783 7.75304 15.7277C8.29115 15.6642 8.84321 15.5989 9.12059 15.53C13.8315 14.3597 17.4846 13.8617 20.7155 14.101C23.9058 14.3372 26.6596 15.2822 29.5696 16.9961C31.0426 16.8276 32.8979 17.2827 34.5282 18.0015C36.4942 18.8684 38.1997 20.1712 38.6043 21.2853L38.598 21.8556L38.2391 22.77C38.452 23.0831 38.5955 23.3871 38.6078 23.6804C38.6405 24.4603 38.2191 24.8837 37.0471 24.7366L33.5899 24.6828C33.8444 24.2198 33.9892 23.688 33.9892 23.1225C33.9892 23.1059 33.989 23.0893 33.9888 23.0728L36.4571 23.1112L36.3955 23.0349L36.5669 22.5985L36.9604 21.5962C36.528 20.929 35.3034 20.1139 33.8755 19.4844C32.3819 18.8259 30.7203 18.4165 29.5459 18.6333L28.9819 18.532ZM27.852 24.5936L10.8449 24.329C10.9944 23.956 11.0768 23.5488 11.0768 23.1225C11.0768 22.9848 11.0682 22.8491 11.0515 22.716L27.5035 22.9719C27.5013 23.0218 27.5 23.072 27.5 23.1225C27.5 23.652 27.627 24.152 27.852 24.5936Z" fill="#fff"/>
<path d="M30.7445 19.8779C31.6403 19.8779 32.4515 20.2411 33.0387 20.8283C33.6258 21.4155 33.989 22.2266 33.989 23.1224C33.989 24.0183 33.6258 24.8294 33.0387 25.4166C32.4515 26.0038 31.6403 26.367 30.7445 26.367C29.8487 26.367 29.0375 26.0038 28.4504 25.4166C27.8632 24.8294 27.5 24.0183 27.5 23.1224C27.5 22.2266 27.8632 21.4155 28.4504 20.8283C29.0375 20.2411 29.8487 19.8779 30.7445 19.8779ZM31.8917 21.9753C31.5982 21.6818 31.1925 21.5002 30.7445 21.5002C30.2965 21.5002 29.8909 21.6818 29.5973 21.9753C29.3039 22.2688 29.1223 22.6744 29.1223 23.1224C29.1223 23.5705 29.3039 23.9761 29.5973 24.2696C29.8909 24.5631 30.2965 24.7447 30.7445 24.7447C31.1925 24.7447 31.5982 24.5631 31.8917 24.2696C32.1852 23.9761 32.3667 23.5705 32.3667 23.1224C32.3667 22.6744 32.1852 22.2688 31.8917 21.9753Z" fill="#fff"/>
<path d="M7.83228 19.8779C8.72812 19.8779 9.53926 20.2411 10.1264 20.8283C10.7136 21.4155 11.0768 22.2266 11.0768 23.1224C11.0768 24.0183 10.7136 24.8294 10.1264 25.4166C9.53926 26.0038 8.72812 26.367 7.83228 26.367C6.93644 26.367 6.1253 26.0038 5.53812 25.4166C4.95094 24.8294 4.58777 24.0183 4.58777 23.1224C4.58777 22.2266 4.95095 21.4155 5.53812 20.8283C6.1253 20.2411 6.93644 19.8779 7.83228 19.8779ZM8.97945 21.9753C8.68593 21.6818 8.2803 21.5002 7.83228 21.5002C7.38426 21.5002 6.97862 21.6818 6.68511 21.9753C6.3916 22.2688 6.21005 22.6744 6.21005 23.1224C6.21005 23.5705 6.3916 23.9761 6.68511 24.2696C6.97863 24.5631 7.38426 24.7447 7.83228 24.7447C8.2803 24.7447 8.68594 24.5631 8.97945 24.2696C9.27293 23.9761 9.45451 23.5705 9.45451 23.1224C9.45451 22.6744 9.27293 22.2688 8.97945 21.9753Z" fill="#fff"/>
<path d="M13.3805 14.9175L15.4797 16.7362L27.1204 18.2883L28.979 17.1475L29.8219 18.529L27.7209 19.8185L27.195 19.9294L15.0281 18.3071L14.6036 18.117L12.3223 16.1406L13.3805 14.9175Z" fill="#fff"/>
</g>
<defs>
<clipPath id="clip0_120_12024">
<rect width="40" height="40" fill="white"/>
</clipPath>
</defs>
</svg>
