<svg width="40" height="40" viewBox="0 0 40 40" fill="none" xmlns="http://www.w3.org/2000/svg">
<g id="truck-svgrepo-com 1">
<path id="Vector" d="M3.94051 10.327H19.6496C20.1692 10.327 20.5903 10.7483 20.5903 11.2677V26.6924H22.8842V21.9295C22.8842 21.41 23.3054 20.9888 23.8249 20.9888C24.3445 20.9888 24.7656 21.41 24.7656 21.9295V26.6924H26.057C26.6317 25.095 28.1617 23.9494 29.9545 23.9494C31.7474 23.9494 33.2772 25.0949 33.852 26.6924H34.4815C34.8328 26.6924 35.1186 26.4065 35.1186 26.0553V22.901C35.1186 22.7123 35.0358 22.5345 34.8912 22.413C34.8738 22.3984 34.8569 22.3832 34.8407 22.3674L32.5644 20.1555H29.1183C28.5987 20.1555 28.1775 19.7342 28.1775 19.2148C28.1775 18.6953 28.5987 18.2741 29.1183 18.2741H31.698L29.9879 13.7667C29.4055 12.4846 28.1229 11.6546 26.7191 11.6501L24.7657 11.6562V15.469C24.7657 15.9885 24.3446 16.4098 23.825 16.4098C23.3054 16.4098 22.8843 15.9885 22.8843 15.469V10.7185C22.8843 10.2001 23.3036 9.77945 23.822 9.77779L26.7192 9.76855C28.8765 9.77553 30.8381 11.0531 31.7167 13.0235C31.7239 13.0397 31.7307 13.0562 31.737 13.0729L33.9336 18.8625L36.13 20.997C36.6834 21.476 37 22.1677 37 22.9011V26.0553C37 27.4441 35.8702 28.5738 34.4814 28.5738H34.0662C33.8259 30.6299 32.0741 32.2311 29.9545 32.2311C27.835 32.2311 26.0832 30.6299 25.8428 28.5738H15.915C15.6747 30.6299 13.9229 32.2311 11.8033 32.2311C11.2838 32.2311 10.8626 31.8098 10.8626 31.2903C10.8626 30.7709 11.2838 30.3496 11.8033 30.3496C13.0491 30.3496 14.0627 29.3362 14.0627 28.0903C14.0627 27.98 14.0543 27.8717 14.039 27.7656C14.0297 27.7005 14.0171 27.6364 14.0023 27.5734C14.0009 27.5673 13.9996 27.5614 13.9982 27.5553C13.9835 27.4946 13.9661 27.435 13.9465 27.3765C13.9443 27.3699 13.9421 27.3632 13.9398 27.3568C13.9194 27.2976 13.8969 27.2393 13.8717 27.1825C13.8702 27.179 13.8685 27.1755 13.867 27.1721C13.5662 26.5006 12.9464 26.0062 12.2153 25.8692C12.2139 25.869 12.2125 25.8687 12.2111 25.8684C12.1466 25.8565 12.0814 25.8474 12.0154 25.8412C12.0104 25.8407 12.0056 25.8404 12.0007 25.84C11.9355 25.8343 11.8697 25.8309 11.8032 25.8309C11.7368 25.8309 11.6709 25.8343 11.6058 25.84C11.6009 25.8404 11.596 25.8407 11.5911 25.8412C11.5251 25.8473 11.4599 25.8565 11.3954 25.8684C11.394 25.8686 11.3926 25.8689 11.3911 25.8692C10.6601 26.0062 10.0402 26.5006 9.73948 27.1722C9.73795 27.1756 9.73635 27.179 9.73489 27.1824C9.70979 27.2393 9.68721 27.2975 9.66676 27.3568C9.6645 27.3633 9.66224 27.3699 9.66005 27.3765C9.64046 27.4351 9.6232 27.4946 9.60839 27.5553C9.60686 27.5612 9.60567 27.5673 9.60427 27.5734C9.58953 27.6364 9.57691 27.7005 9.56762 27.7656C9.55227 27.8716 9.54391 27.98 9.54391 28.0903C9.54391 28.6098 9.12276 29.031 8.60319 29.031C8.26067 29.031 7.9619 28.8474 7.79735 28.5738H3.94051C3.42095 28.5738 2.9998 28.1525 2.9998 27.6331V11.2677C2.9998 10.7481 3.42095 10.327 3.94051 10.327ZM29.9545 30.3497C31.2003 30.3497 32.2139 29.3363 32.2139 28.0903C32.2139 26.8444 31.2003 25.8309 29.9545 25.8309C28.7087 25.8309 27.6952 26.8444 27.6952 28.0903C27.6952 29.3363 28.7087 30.3497 29.9545 30.3497ZM4.8813 26.6924H7.90585C7.92252 26.6462 7.94045 26.6007 7.95865 26.5553C7.96091 26.5497 7.96297 26.5442 7.96522 26.5386C7.98435 26.4915 8.00447 26.4449 8.02525 26.3987C8.02592 26.3971 8.02665 26.3956 8.02731 26.394C8.60605 25.1108 9.81943 24.174 11.2654 23.9855C11.2891 23.9824 11.3126 23.9792 11.3364 23.9765C11.3677 23.9729 11.3991 23.9699 11.4306 23.967C11.4674 23.9636 11.5044 23.9609 11.5414 23.9585C11.5654 23.9569 11.5892 23.9553 11.6133 23.9541C11.6763 23.9512 11.7396 23.9494 11.8032 23.9494C11.8668 23.9494 11.9301 23.9512 11.9931 23.9541C12.0172 23.9553 12.0411 23.9569 12.065 23.9585C12.102 23.9608 12.139 23.9636 12.1758 23.967C12.2073 23.9698 12.2388 23.9729 12.27 23.9765C12.2937 23.9792 12.3174 23.9824 12.341 23.9855C13.7864 24.174 14.9993 25.11 15.5784 26.3924C15.5795 26.3949 15.5807 26.3974 15.5819 26.4C15.6023 26.4454 15.6219 26.4911 15.6408 26.5373C15.6437 26.5443 15.6463 26.5515 15.6491 26.5585C15.6668 26.6028 15.6844 26.6473 15.7006 26.6922H18.7082H18.7088V12.2085H4.88116V26.6924H4.8813Z" fill="#90A3C4"/>
</g>
</svg>
