<svg width="24" height="24" viewBox="0 0 24 24" fill="none" xmlns="http://www.w3.org/2000/svg">
<g id="20695320241579688091 1" clip-path="url(#clip0_133_654)">
<g id="Group">
<g id="Group_2">
<path id="Vector" d="M20.6327 3.36731C18.4613 1.19583 15.5742 0 12.5033 0C9.43242 0 6.5453 1.19583 4.37381 3.36731C2.20233 5.5388 1.00655 8.42583 1.00655 11.4967C1.00655 13.442 1.49897 15.3535 2.43366 17.0468L0 24L6.95311 21.5664C8.64642 22.501 10.558 22.9935 12.5033 22.9935C15.5741 22.9935 18.4613 21.7976 20.6326 19.6261C22.8041 17.4547 24 14.5676 24 11.4967C24 8.42578 22.8041 5.53875 20.6327 3.36731ZM12.5033 21.5857C10.6987 21.5857 8.92758 21.1031 7.38141 20.19L7.09973 20.0236L2.29463 21.7053L3.97641 16.9003L3.81005 16.6186C2.89697 15.0724 2.41434 13.3013 2.41434 11.4967C2.41434 5.93367 6.94027 1.4078 12.5033 1.4078C18.0663 1.4078 22.5922 5.93372 22.5922 11.4967C22.5922 17.0598 18.0663 21.5857 12.5033 21.5857Z" fill="#1C819D"/>
</g>
</g>
<g id="Group_3">
<g id="Group_4">
<path id="Vector_2" d="M18.684 14.2744L17.025 12.6154C16.4761 12.0665 15.583 12.0665 15.0341 12.6154L14.3995 13.25C12.8584 12.414 11.5855 11.1412 10.7495 9.60007L11.3841 8.96543C11.65 8.69956 11.7964 8.34603 11.7964 7.97C11.7964 7.59396 11.65 7.24043 11.3841 6.97456L9.72506 5.31551C9.45918 5.04964 9.10565 4.9032 8.72962 4.9032C8.35354 4.9032 8.00006 5.04964 7.73418 5.31551L6.40696 6.64273C5.6579 7.39179 5.62265 8.68475 6.30773 10.2832C6.90623 11.6797 8.00202 13.2149 9.39327 14.6062C10.7845 15.9974 12.3198 17.0932 13.7162 17.6917C14.4781 18.0182 15.1704 18.1811 15.7676 18.1811C16.4235 18.1811 16.9647 17.9846 17.3567 17.5925L18.6839 16.2653C18.9499 15.9994 19.0963 15.6459 19.0963 15.2698C19.0963 14.8938 18.9499 14.5403 18.684 14.2744ZM16.3614 16.5972C16.0651 16.8934 15.2445 16.8152 14.2708 16.3978C13.0351 15.8682 11.6564 14.8784 10.3887 13.6108C9.12107 12.3432 8.1313 10.9645 7.60166 9.7287C7.18434 8.75501 7.10615 7.93442 7.40235 7.63812L8.72962 6.3109L10.3887 7.96995L9.04246 9.31615L9.25481 9.76442C10.2871 11.9436 12.0557 13.7123 14.235 14.7446L14.6833 14.9569L16.0295 13.6107L17.6885 15.2698L16.3614 16.5972Z" fill="#1C819D"/>
</g>
</g>
</g>
<defs>
<clipPath id="clip0_133_654">
<rect width="24" height="24" fill="white"/>
</clipPath>
</defs>
</svg>
