<svg width="120" height="16" viewBox="0 0 120 16" fill="none" xmlns="http://www.w3.org/2000/svg">
<path fill-rule="evenodd" clip-rule="evenodd" d="M13.6445 13.7155C15.2086 13.7155 16.4766 12.4476 16.4766 10.8835C16.4766 9.31939 15.2086 8.05145 13.6445 8.05145C12.0804 8.05145 10.8125 9.31939 10.8125 10.8835C10.8125 12.4476 12.0804 13.7155 13.6445 13.7155ZM13.6445 12.2994C14.4266 12.2994 15.0605 11.6654 15.0605 10.8834C15.0605 10.1013 14.4266 9.46735 13.6445 9.46735C12.8625 9.46735 12.2285 10.1013 12.2285 10.8834C12.2285 11.6654 12.8625 12.2994 13.6445 12.2994Z" fill="black"/>
<path fill-rule="evenodd" clip-rule="evenodd" d="M29.8652 13.7155C31.4293 13.7155 32.6973 12.4476 32.6973 10.8835C32.6973 9.31939 31.4293 8.05145 29.8652 8.05145C28.3011 8.05145 27.0332 9.31939 27.0332 10.8835C27.0332 12.4476 28.3011 13.7155 29.8652 13.7155ZM29.8652 12.2994C30.6473 12.2994 31.2812 11.6654 31.2812 10.8834C31.2812 10.1013 30.6473 9.46735 29.8652 9.46735C29.0832 9.46735 28.4492 10.1013 28.4492 10.8834C28.4492 11.6654 29.0832 12.2994 29.8652 12.2994Z" fill="black"/>
<path d="M0 3.67456C9.78312 7.27893 17.6999 -3.4699 27.1617 4.64002C17.6358 0.00578392 9.26845 10.0466 0 3.67456Z" fill="#1C819D"/>
<path d="M3.92597 6.4422C17.6999 13.2648 23.7502 2.44861 36.623 8.69495C24.2007 0.327593 19.1159 10.8833 3.92597 6.4422Z" fill="#1C819D"/>
<path d="M33.4692 10.9477V9.98223C34.0908 9.92952 34.9739 9.63741 36.7517 9.01677C35.5528 9.8327 34.8574 10.2732 33.4692 10.9477Z" fill="#1C819D"/>
<path d="M26.5822 12.4281C26.3615 11.9099 26.2848 11.543 26.2604 10.6902C23.2858 10.6838 21.3125 10.464 17.3137 9.72478C17.3727 10.6527 17.3789 11.0801 17.3137 11.5913C20.0814 11.9132 21.433 12.6212 26.5822 12.4281Z" fill="#1C819D"/>
<path d="M10.0406 11.5913C9.95998 11.1252 9.96579 10.841 10.0406 10.3041C8.06601 10.8063 6.93361 11.2988 4.89143 12.3637C7.13862 11.8208 8.30036 11.6156 10.0406 11.5913Z" fill="#1C819D"/>
<path d="M47.9253 2.76782H50.7313V2.80698C48.778 7.69242 47.6578 10.4136 47.3706 10.9704C46.8486 11.7404 46.2874 12.1254 45.6871 12.1254H40.9561V12.0928L41.7978 9.9198H43.7947C44.6125 9.9198 45.1498 9.62832 45.4065 9.04537C45.4761 8.91051 46.3157 6.818 47.9253 2.76782Z" fill="black"/>
<path d="M53.4459 2.76782H63.071C62.5577 4.06423 62.301 4.72983 62.301 4.76463H57.1916C57.0828 4.91689 56.8501 5.46504 56.4933 6.40906H60.513V6.44169C60.0476 7.62064 59.8148 8.22751 59.8148 8.26231H55.7886C55.7277 8.26231 55.4949 8.81046 55.0903 9.90674H59.7822L60.7936 12.0797V12.1124H51.4165V12.0797C51.4643 11.897 52.4453 9.45866 54.3595 4.76463C53.7504 3.50303 53.4459 2.8483 53.4459 2.80045V2.76782Z" fill="black"/>
<path d="M65.8183 2.76782H74.0796C74.7539 2.76782 75.2085 3.02449 75.4434 3.53783L75.4826 3.7858V4.13166C75.4826 4.40573 75.0845 5.46939 74.2884 7.32264C73.8142 8.02304 73.0681 8.37325 72.0502 8.37325H68.2001C68.1262 8.37325 67.8564 9.00405 67.3909 10.2656C66.8907 11.4794 66.6231 12.0971 66.5883 12.1189H63.8541V12.0863C65.3245 8.34497 66.0945 6.45257 66.1641 6.40906H70.9996C71.4694 6.40906 71.7848 6.31553 71.9458 6.12847C72.1241 5.8805 72.2633 5.53029 72.3634 5.07786C72.272 4.86904 72.1089 4.76463 71.874 4.76463H66.7971C66.6275 4.51666 66.3012 3.85106 65.8183 2.76782Z" fill="black"/>
<path d="M82.6541 2.76782V2.80045C82.3496 3.60091 81.1011 6.70489 78.9085 12.1124H76.1417V12.0797C76.1417 12.0232 77.3902 8.91921 79.8873 2.76782H82.6541Z" fill="black"/>
<path d="M87.5418 2.76782H94.8699V2.80045C94.3131 4.06205 94.0346 4.7146 94.0346 4.75811H89.0753C88.4706 4.75811 88.042 5.24535 87.7897 6.21982C86.9501 8.18618 86.5303 9.26942 86.5303 9.46953C86.5303 9.74796 86.7739 9.88717 87.2612 9.88717H88.24C89.1144 9.88717 89.6256 9.61962 89.7735 9.08453L90.1585 8.21011L90.0932 8.17748H88.6968V8.14485L89.4276 6.21982H93.7214C92.7339 8.79088 92.0596 10.3983 91.6985 11.0422C91.2113 11.7382 90.6762 12.0863 90.0932 12.0863H84.5074C83.9679 12.0863 83.596 11.8426 83.3915 11.3554C83.3437 11.2641 83.3197 11.1357 83.3197 10.9704V10.6898C83.3197 10.3679 83.646 9.43691 84.2986 7.89688C85.3078 5.31713 85.9365 3.87499 86.1844 3.57046C86.5847 3.03537 87.0371 2.76782 87.5418 2.76782Z" fill="#1C819D"/>
<path d="M97.5845 2.7874H105.696C106.327 2.7874 106.757 3.03102 106.988 3.51826C107.057 3.72707 107.092 3.90109 107.092 4.0403V4.21649C107.092 4.63847 106.603 5.96098 105.624 8.18401L104.097 12.0863H101.343V12.0536L102.805 8.3602H99.8424C99.7858 8.39065 99.3682 9.38905 98.5895 11.3554C98.4067 11.8122 98.2915 12.0558 98.2436 12.0863H95.5616V12.0536C97.4192 7.40312 98.4067 4.97562 98.5242 4.77116C97.8978 3.50956 97.5845 2.8483 97.5845 2.7874ZM100.612 6.37644H103.575C103.662 6.37644 103.823 5.99361 104.058 5.22794V5.05176C103.966 4.86469 103.816 4.77116 103.608 4.77116H101.311C101.25 4.77116 101.017 5.30625 100.612 6.37644Z" fill="#1C819D"/>
<path d="M111.301 2.76782H119.876V2.80045C115.656 7.25521 113.428 9.62397 113.194 9.90674H117.605V9.93937L116.763 12.1124H107.803V12.0797C108.204 11.6317 110.514 9.19329 114.734 4.76463H110.57C110.57 4.69503 110.814 4.02942 111.301 2.76782Z" fill="#1C819D"/>
</svg>
