<svg width="187" height="26" viewBox="0 0 187 26" fill="none" xmlns="http://www.w3.org/2000/svg">
<path fill-rule="evenodd" clip-rule="evenodd" d="M21.2633 22.44C23.7007 22.44 25.6766 20.4641 25.6766 18.0268C25.6766 15.5894 23.7007 13.6135 21.2633 13.6135C18.826 13.6135 16.8501 15.5894 16.8501 18.0268C16.8501 20.4641 18.826 22.44 21.2633 22.44ZM21.2634 20.2332C22.4821 20.2332 23.47 19.2452 23.47 18.0266C23.47 16.8079 22.4821 15.8199 21.2634 15.8199C20.0447 15.8199 19.0568 16.8079 19.0568 18.0266C19.0568 19.2452 20.0447 20.2332 21.2634 20.2332Z" fill="white"/>
<path fill-rule="evenodd" clip-rule="evenodd" d="M46.5393 22.44C48.9767 22.44 50.9526 20.4641 50.9526 18.0268C50.9526 15.5894 48.9767 13.6135 46.5393 13.6135C44.102 13.6135 42.1261 15.5894 42.1261 18.0268C42.1261 20.4641 44.102 22.44 46.5393 22.44ZM46.5392 20.2332C47.7579 20.2332 48.7458 19.2452 48.7458 18.0266C48.7458 16.8079 47.7579 15.8199 46.5392 15.8199C45.3205 15.8199 44.3326 16.8079 44.3326 18.0266C44.3326 19.2452 45.3205 20.2332 46.5392 20.2332Z" fill="white"/>
<path d="M0 6.79287C15.2454 12.4097 27.5824 -4.34058 42.327 8.29738C27.4825 1.07569 14.4433 16.7227 0 6.79287Z" fill="#1C819D"/>
<path d="M6.11797 11.1058C27.5824 21.7377 37.0107 4.88243 57.0709 14.6163C37.7128 1.57718 29.789 18.0265 6.11797 11.1058Z" fill="#1C819D"/>
<path d="M52.1561 18.1268V16.6223C53.1248 16.5402 54.501 16.085 57.2715 15.1178C55.403 16.3893 54.3195 17.0757 52.1561 18.1268Z" fill="#1C819D"/>
<path d="M41.4239 20.4338C41.08 19.6263 40.9605 19.0545 40.9224 17.7256C36.287 17.7155 33.212 17.3731 26.9806 16.2211C27.0725 17.6672 27.0821 18.3332 26.9806 19.1298C31.2935 19.6314 33.3998 20.7347 41.4239 20.4338Z" fill="#1C819D"/>
<path d="M15.6466 19.1298C15.521 18.4034 15.53 17.9605 15.6466 17.1238C12.5695 17.9064 10.8049 18.6739 7.62248 20.3335C11.1243 19.4874 12.9347 19.1677 15.6466 19.1298Z" fill="#1C819D"/>
<path d="M74.684 5.37988H79.0567V5.4409C76.0128 13.054 74.2671 17.2945 73.8197 18.1622C73.0062 19.3622 72.1316 19.9621 71.1961 19.9621H63.8236V19.9113L65.1354 16.525H68.2471C69.5216 16.525 70.3588 16.0708 70.7588 15.1624C70.8673 14.9522 72.1757 11.6914 74.684 5.37988Z" fill="white"/>
<path d="M83.287 5.37988H98.2861C97.4862 7.40011 97.0862 8.43734 97.0862 8.49158H89.1239C88.9544 8.72885 88.5918 9.58304 88.0359 11.0542H94.2999V11.105C93.5745 12.9422 93.2118 13.8879 93.2118 13.9421H86.9376C86.8427 13.9421 86.48 14.7963 85.8495 16.5047H93.161L94.7372 19.891V19.9418H80.1244V19.891C80.199 19.6062 81.7277 15.8064 84.7106 8.49158C83.7615 6.52558 83.287 5.5053 83.287 5.43073V5.37988Z" fill="white"/>
<path d="M102.567 5.37988H115.441C116.492 5.37988 117.2 5.77986 117.566 6.57982L117.627 6.96624V7.50519C117.627 7.93229 117.007 9.58982 115.767 12.4778C115.028 13.5693 113.865 14.115 112.279 14.115H106.279C106.164 14.115 105.743 15.098 105.018 17.064C104.238 18.9554 103.821 19.9181 103.767 19.952H99.5064V19.9011C101.798 14.0709 102.998 11.1219 103.106 11.0542H110.641C111.374 11.0542 111.865 10.9084 112.116 10.6169C112.394 10.2305 112.611 9.68473 112.767 8.97969C112.624 8.65428 112.37 8.49158 112.004 8.49158H104.093C103.828 8.10516 103.32 7.06793 102.567 5.37988Z" fill="white"/>
<path d="M128.803 5.37988V5.43073C128.329 6.67812 126.383 11.5151 122.966 19.9418H118.655V19.891C118.655 19.8028 120.6 14.9658 124.491 5.37988H128.803Z" fill="white"/>
<path d="M136.42 5.37988H147.839V5.43073C146.972 7.39672 146.538 8.41362 146.538 8.48141H138.809C137.867 8.48141 137.199 9.24069 136.806 10.7593C135.498 13.8235 134.843 15.5115 134.843 15.8234C134.843 16.2573 135.223 16.4742 135.982 16.4742H137.508C138.87 16.4742 139.667 16.0573 139.897 15.2234L140.497 13.8608L140.396 13.8099H138.22V13.7591L139.358 10.7593H146.05C144.511 14.7658 143.46 17.2708 142.897 18.2741C142.138 19.3588 141.304 19.9011 140.396 19.9011H131.691C130.85 19.9011 130.271 19.5215 129.952 18.7622C129.878 18.6198 129.84 18.4199 129.84 18.1622V17.725C129.84 17.2233 130.349 15.7725 131.366 13.3727C132.938 9.35255 133.918 7.10521 134.305 6.63066C134.928 5.79681 135.633 5.37988 136.42 5.37988Z" fill="#1C819D"/>
<path d="M152.07 5.41039H164.71C165.693 5.41039 166.364 5.79003 166.723 6.54931C166.832 6.87472 166.886 7.14589 166.886 7.36283V7.63739C166.886 8.29498 166.123 10.3559 164.598 13.8201L162.218 19.9011H157.927V19.8503L160.205 14.0947H155.588C155.5 14.1421 154.849 15.698 153.636 18.7622C153.351 19.474 153.171 19.8537 153.097 19.9011H148.917V19.8503C151.812 12.6032 153.351 8.82037 153.534 8.50175C152.558 6.53575 152.07 5.5053 152.07 5.41039ZM156.788 11.0033H161.405C161.54 11.0033 161.791 10.4067 162.157 9.21357V8.93901C162.015 8.6475 161.781 8.50175 161.456 8.50175H157.876C157.781 8.50175 157.419 9.3356 156.788 11.0033Z" fill="#1C819D"/>
<path d="M173.445 5.37988H186.807V5.43073C180.231 12.3727 176.76 16.064 176.394 16.5047H183.268V16.5555L181.956 19.9418H167.994V19.891C168.618 19.1927 172.218 15.3929 178.794 8.49158H172.306C172.306 8.38311 172.685 7.34588 173.445 5.37988Z" fill="#1C819D"/>
</svg>
