<svg width="141" height="28" viewBox="0 0 141 28" fill="none" xmlns="http://www.w3.org/2000/svg">
<path d="M69.8685 22.8186C69.3961 22.8186 68.9342 22.7387 68.4826 22.579C68.038 22.4261 67.6316 22.1899 67.2634 21.8704L68.1908 20.745C68.4131 20.9325 68.6667 21.0819 68.9515 21.1931C69.2363 21.3042 69.542 21.3598 69.8685 21.3598C70.3548 21.3598 70.7959 21.2313 71.1919 20.9742C71.5879 20.7102 71.9039 20.3698 72.1401 19.953C72.3833 19.5293 72.5049 19.0777 72.5049 18.5984V7.95924H73.9637V18.5984C73.9637 19.3487 73.7796 20.0433 73.4114 20.6825C73.0432 21.3216 72.55 21.8391 71.9317 22.2351C71.3135 22.6241 70.6257 22.8186 69.8685 22.8186Z" fill="black"/>
<path d="M81.0467 22.8186C80.0881 22.8186 79.2128 22.572 78.4208 22.0788C77.6358 21.5855 77.0071 20.9256 76.5347 20.0989C76.0693 19.2653 75.8366 18.3448 75.8366 17.3375C75.8366 16.5734 75.9721 15.8613 76.243 15.2014C76.5139 14.5345 76.8856 13.9509 77.358 13.4507C77.8373 12.9436 78.393 12.5477 79.0252 12.2628C79.6574 11.978 80.3312 11.8356 81.0467 11.8356C81.8179 11.8356 82.5264 11.9884 83.1725 12.2941C83.8255 12.5998 84.3847 13.027 84.8502 13.5758C85.3226 14.1246 85.6768 14.7672 85.913 15.5036C86.1562 16.2399 86.2569 17.0353 86.2152 17.8898H77.3788C77.4622 18.5498 77.6706 19.1402 78.004 19.6613C78.3444 20.1823 78.7751 20.5956 79.2961 20.9013C79.8241 21.2 80.4076 21.3528 81.0467 21.3598C81.7414 21.3598 82.3667 21.1792 82.9224 20.8179C83.4851 20.4567 83.9367 19.96 84.2771 19.3278L85.7567 19.6717C85.3399 20.5956 84.7112 21.3528 83.8707 21.9433C83.0301 22.5269 82.0888 22.8186 81.0467 22.8186ZM77.3371 16.7123H84.746C84.6973 16.0663 84.4994 15.4758 84.152 14.9409C83.8116 14.399 83.3705 13.9683 82.8286 13.6487C82.2868 13.3222 81.6928 13.159 81.0467 13.159C80.4007 13.159 79.8102 13.3188 79.2753 13.6383C78.7404 13.9509 78.3027 14.3782 77.9623 14.92C77.6219 15.4549 77.4135 16.0524 77.3371 16.7123Z" fill="black"/>
<path d="M89.4603 27.7579H88.0015V12.1274H89.4603V14.076C89.8216 13.416 90.3148 12.8811 90.94 12.4712C91.5653 12.0614 92.3086 11.8564 93.17 11.8564C93.9272 11.8564 94.6358 11.9989 95.2957 12.2837C95.9626 12.5685 96.5462 12.9645 97.0463 13.4716C97.5465 13.9718 97.939 14.5518 98.2238 15.2118C98.5087 15.8717 98.6511 16.5803 98.6511 17.3375C98.6511 18.0947 98.5087 18.8068 98.2238 19.4737C97.939 20.1406 97.5465 20.7276 97.0463 21.2347C96.5462 21.7349 95.9626 22.1274 95.2957 22.4122C94.6358 22.6971 93.9272 22.8395 93.17 22.8395C92.3086 22.8395 91.5653 22.6345 90.94 22.2247C90.3148 21.8148 89.8216 21.2799 89.4603 20.6199V27.7579ZM93.1596 13.2736C92.4301 13.2736 91.7945 13.4577 91.2526 13.8259C90.7177 14.1871 90.3044 14.6734 90.0126 15.2847C89.7209 15.8961 89.575 16.5803 89.575 17.3375C89.575 18.0808 89.7174 18.7616 90.0022 19.3799C90.294 19.9982 90.7073 20.4914 91.2422 20.8596C91.7841 21.2278 92.4232 21.4119 93.1596 21.4119C93.882 21.4119 94.5455 21.2313 95.1498 20.87C95.7612 20.5088 96.2509 20.0225 96.6191 19.4112C96.9873 18.7929 97.1714 18.1017 97.1714 17.3375C97.1714 16.5942 96.9908 15.9169 96.6295 15.3056C96.2683 14.6873 95.7855 14.1941 95.1811 13.8259C94.5767 13.4577 93.9029 13.2736 93.1596 13.2736Z" fill="black"/>
<path d="M100.315 12.1274H101.773V22.5477H100.315V12.1274ZM101.054 10.3038C100.818 10.3038 100.617 10.2274 100.45 10.0746C100.29 9.91479 100.21 9.7168 100.21 9.48061C100.21 9.24441 100.29 9.0499 100.45 8.89707C100.617 8.73729 100.818 8.6574 101.054 8.6574C101.284 8.6574 101.478 8.73729 101.638 8.89707C101.805 9.0499 101.888 9.24441 101.888 9.48061C101.888 9.7168 101.808 9.91479 101.648 10.0746C101.489 10.2274 101.291 10.3038 101.054 10.3038Z" fill="black"/>
<path d="M111.046 22.8186C110.046 22.8186 109.108 22.6241 108.233 22.2351C107.364 21.8391 106.604 21.2938 105.951 20.5991C105.298 19.8975 104.787 19.0916 104.419 18.1816C104.051 17.2646 103.866 16.2851 103.866 15.243C103.866 14.1802 104.057 13.1902 104.44 12.2733C104.822 11.3563 105.346 10.5574 106.013 9.87658C106.68 9.18884 107.444 8.65393 108.306 8.27185C109.174 7.88977 110.094 7.69873 111.067 7.69873C112.185 7.69873 113.241 7.95924 114.235 8.48026C115.235 9.00127 116.083 9.74111 116.777 10.6998L115.475 11.4084C114.919 10.6789 114.249 10.1197 113.464 9.73069C112.686 9.34167 111.883 9.14716 111.056 9.14716C110.271 9.14716 109.532 9.30693 108.837 9.62649C108.149 9.9391 107.541 10.3768 107.013 10.9395C106.485 11.5021 106.072 12.1517 105.773 12.8881C105.475 13.6244 105.325 14.4164 105.325 15.2639C105.325 16.1045 105.475 16.8929 105.773 17.6293C106.072 18.3657 106.482 19.0152 107.003 19.5779C107.531 20.1336 108.142 20.5713 108.837 20.8909C109.532 21.2035 110.275 21.3598 111.067 21.3598C111.72 21.3598 112.338 21.2486 112.922 21.0263C113.512 20.7971 114.051 20.4775 114.537 20.0677C115.023 19.6578 115.433 19.1785 115.766 18.6297C116.107 18.0808 116.353 17.4834 116.506 16.8374H112.567V15.514H118.205C118.184 16.5213 117.983 17.466 117.6 18.3483C117.218 19.2306 116.697 20.0086 116.037 20.6825C115.384 21.3494 114.631 21.8738 113.776 22.2559C112.929 22.6311 112.019 22.8186 111.046 22.8186Z" fill="#1C819D"/>
<path d="M128.703 12.1274H130.162V22.5477H128.703L128.651 20.6095C128.311 21.2695 127.835 21.8044 127.223 22.2142C126.612 22.6172 125.883 22.8186 125.035 22.8186C124.271 22.8186 123.555 22.6762 122.889 22.3914C122.222 22.0996 121.635 21.7002 121.128 21.1931C120.62 20.6859 120.224 20.0989 119.94 19.432C119.655 18.7651 119.512 18.0496 119.512 17.2854C119.512 16.5352 119.651 15.8301 119.929 15.1701C120.214 14.5101 120.603 13.9301 121.096 13.4299C121.596 12.9297 122.173 12.5407 122.826 12.2628C123.486 11.978 124.191 11.8356 124.941 11.8356C125.81 11.8356 126.567 12.044 127.213 12.4608C127.859 12.8707 128.373 13.4091 128.755 14.076L128.703 12.1274ZM125.004 21.4015C125.747 21.4015 126.386 21.2208 126.921 20.8596C127.456 20.4914 127.866 19.9982 128.151 19.3799C128.443 18.7616 128.589 18.0808 128.589 17.3375C128.589 16.5734 128.443 15.8856 128.151 15.2743C127.859 14.656 127.446 14.1663 126.911 13.805C126.376 13.4438 125.74 13.2632 125.004 13.2632C124.268 13.2632 123.594 13.4473 122.982 13.8155C122.378 14.1767 121.895 14.6665 121.534 15.2847C121.18 15.903 121.003 16.5873 121.003 17.3375C121.003 18.0947 121.187 18.7825 121.555 19.4008C121.923 20.0121 122.409 20.4984 123.014 20.8596C123.625 21.2208 124.288 21.4015 125.004 21.4015Z" fill="#1C819D"/>
<path d="M140.729 13.5862L133.894 21.0888H140.729V22.5477H131.83V21.0888L138.666 13.5862H131.83V12.1274H140.729V13.5862Z" fill="#1C819D"/>
<path d="M104.203 4.31201L100.458 9.52217H101.598L104.203 4.31201Z" fill="black"/>
<path d="M13.1297 10.4871C13.1297 10.4871 14.9094 6.01122 17.1285 3.8881C17.7463 3.29711 18.1677 2.76181 21.1694 2.46527C23.8457 2.19991 27.7194 2.10619 30.1413 2.07274V2.05258C30.1413 2.05258 30.565 2.05258 31.2609 2.05923C31.9546 2.05258 32.3806 2.05258 32.3806 2.05258V2.07274C34.8025 2.10619 38.6764 2.19991 41.3523 2.46527C44.3542 2.76181 44.7756 3.29711 45.3934 3.8881C47.6125 6.01122 49.3922 10.4871 49.3922 10.4871C44.1892 10.0902 18.3327 10.0902 13.1297 10.4871ZM52.4028 11.145C53.8792 10.9912 55.7345 10.7859 56.5622 10.661C58.0473 10.438 58.8547 9.95844 58.3395 9.25606C58.005 8.80326 57.1353 8.4689 56.3413 8.23679C55.9043 8.10982 55.4916 8.01381 55.2061 7.94483C54.401 7.75302 53.7232 7.91345 53.431 8.13642C53.1409 8.36168 52.6081 9.99646 52.2868 10.1883C52.1173 10.2909 51.6869 10.3487 51.3168 10.3801C50.8484 9.45909 48.7544 5.47821 46.5442 3.37961C45.8595 2.72835 45.3822 2.1463 42.3736 1.82524C38.2325 1.38366 31.2609 1.38138 31.2609 1.38138C31.2609 1.38138 24.2896 1.38366 20.1481 1.82524C17.1395 2.1463 16.6624 2.72835 15.9777 3.37961C13.7675 5.47821 11.6735 9.45909 11.2051 10.3801C10.835 10.3487 10.4046 10.2909 10.235 10.1883C9.91378 9.99646 9.38097 8.36168 9.09109 8.13642C8.79892 7.91345 8.12085 7.75302 7.31583 7.94483C6.50851 8.13642 4.6998 8.55348 4.18237 9.25606C3.66723 9.95844 4.47454 10.438 5.95991 10.661C6.89212 10.8015 9.12226 11.0423 10.6542 11.203C9.3897 11.8341 8.11192 12.6391 7.12402 13.4354C6.13592 14.2338 5.43584 15.0255 5.33318 15.6342C5.12579 16.8498 5.33318 19.6753 5.33318 19.6753C5.33318 19.6753 5.69891 18.5022 6.23858 16.3367C6.49293 15.322 9.53267 13.393 11.0958 12.5121C11.0958 12.5121 12.5365 12.7798 14.9251 14.0821C17.095 15.2663 18.8034 16.9969 18.8034 16.9969C18.8034 16.9969 18.1544 15.3511 16.1828 13.9349L14.1513 12.1329C14.1513 12.1329 16.9701 11.3792 31.2609 11.3792C41.5553 11.3792 48.6428 11.8765 48.6428 11.8765C48.6428 11.8765 46.3636 13.9194 46.3391 13.9349C44.3675 15.3511 43.7185 16.9969 43.7185 16.9969C43.7185 16.9969 45.3622 15.1392 47.5967 14.0821C48.4822 13.6629 51.0066 12.5655 51.0066 12.5655C53.7163 13.7922 56.0067 15.3243 56.2611 16.3367C56.8005 18.5022 57.1665 19.6753 57.1665 19.6753C57.1665 19.6753 57.3716 16.8498 57.1665 15.6342C56.968 14.4723 54.5928 12.6324 52.1732 11.3702C52.0749 11.3189 51.9791 11.2699 51.881 11.2208L51.8675 11.203C52.035 11.1851 52.211 11.1672 52.3939 11.1473L52.4028 11.145Z" fill="black"/>
<path d="M39.3928 17.6155C38.5383 18.5456 38.3566 19.5333 37.0101 19.9294C35.6639 20.3254 31.261 20.4098 31.261 20.4098C31.261 20.4098 26.8583 20.3254 25.5117 19.9294C24.1654 19.5333 23.9838 18.5456 23.1293 17.6155C22.4369 16.862 22.0703 16.7421 22.0703 16.7421C22.3631 17.1421 23.1775 18.6857 23.7095 19.9148C23.9975 20.5804 25.4808 20.8173 26.2266 20.9544C27.5731 21.2022 31.261 21.2021 31.261 21.2021C31.261 21.2021 34.9489 21.2022 36.2955 20.9544C37.0413 20.8173 38.5246 20.5804 38.8128 19.9148C39.3445 18.6857 40.1589 17.1421 40.4519 16.7421C40.4519 16.7421 40.0852 16.862 39.3928 17.6155Z" fill="black"/>
<path d="M31.2609 19.1538C32.5684 19.1538 35.971 19.021 36.4504 18.5543C36.9296 18.0874 37.2654 17.7819 37.6486 17.4723C37.6486 17.4723 36.3906 18.0745 35.6716 18.2513C34.9526 18.4284 32.3664 18.5543 31.2609 18.5543C30.1552 18.5543 27.5693 18.4284 26.8503 18.2513C26.1313 18.0745 24.8733 17.4723 24.8733 17.4723C25.2567 17.7819 25.5923 18.0874 26.0715 18.5543C26.5507 19.021 29.9534 19.1538 31.2609 19.1538Z" fill="black"/>
<path d="M31.2609 25.1965C42.3946 25.1965 52.9728 25.3382 62.5219 25.5928C54.4636 24.783 43.4336 24.2832 31.2609 24.2832C19.088 24.2832 8.05828 24.783 0 25.5928C9.54885 25.3382 20.1273 25.1965 31.2609 25.1965Z" fill="black"/>
<path d="M9.42886 15.0962C13.9486 16.4209 16.5201 17.434 18.3124 20.6289C11.9225 18.8366 7.09125 21.0965 9.42886 15.0962Z" fill="#1C819D"/>
<path d="M53.1456 15.0962C48.6259 16.4209 46.0543 17.434 44.262 20.6289C50.6519 18.8366 55.4832 21.0965 53.1456 15.0962Z" fill="#1C819D"/>
<path d="M86.619 7.07982C84.3396 16.0348 93.2945 -9.20193 118.857 7.40542C105.182 -1.8311 98.0975 -2.12365 86.619 7.07982Z" fill="black"/>
</svg>
